<svg width="451" height="648" viewBox="0 0 451 648" fill="none" xmlns="http://www.w3.org/2000/svg">
<path d="M168.485 62.5524C186.547 48.476 212.799 48.11 219.502 62.5524C211.869 55.6053 195.856 58.3477 195.856 58.3477C195.856 58.3477 218.944 58.3477 220.246 74.8005C228.254 73.1563 230.58 80.1014 230.58 80.1014C245.755 80.1014 251.154 92.3496 247.431 106.61C255.996 114.289 253.576 136.227 237.749 135.129C242.218 133.483 249.107 128.73 246.687 119.954C241.846 132.568 229.372 136.407 216.896 133.665C204.422 130.922 163.645 111.727 163.645 111.727L168.485 62.5524Z" fill="#8A221E"/>
<path d="M166.943 78.2127C168.852 85.876 171.272 91.797 173.916 89.1886C179.379 83.7997 186.033 69.2192 181.85 55.0527C177.187 56.825 172.622 59.3195 168.486 62.544L166.943 78.2127Z" fill="#1B2236"/>
<path d="M27.823 175.953L10.4881 163.999C9.40794 163.253 7.93763 163.445 7.08349 164.443C6.18733 165.489 6.27936 167.057 7.29153 167.991L18.9116 178.741L4.297 173.18C3.23882 172.778 2.04861 173.272 1.58853 174.308C1.11445 175.375 1.58651 176.625 2.64669 177.113L13.1806 181.958L10.164 185.588L11.7643 197.318L22.4241 200.729L27.823 175.953Z" fill="#DE7373"/>
<path d="M63.4892 1.01222C40.3533 -4.99081 14.7469 16.2748 6.40549 48.4143C1.13459 68.7258 3.16891 92.6079 11.9544 108.413C13.0806 110.437 13.9528 112.639 14.6349 114.922C16.5913 121.461 17.8154 135.223 18.3995 143.383C18.6955 147.519 18.2955 151.72 17.2294 155.795C12.7286 172.984 0.168333 221.5 0.0383111 222.006C-0.743823 225.019 10.7002 227.989 11.4823 224.975C11.6143 224.468 24.2306 175.966 28.6533 158.757C29.7015 154.679 31.3937 150.814 33.6641 147.341C38.1428 140.496 45.9022 129.066 50.791 124.303C52.4973 122.641 54.3296 121.141 56.296 119.921C71.6606 110.383 85.0509 90.4995 90.3218 70.1881C98.6633 38.0506 86.6252 7.01525 63.4892 1.01222ZM39.149 129.394C35.8304 133.687 32.7399 138.428 29.8454 143.667C29.0133 145.173 27.4451 145.973 25.9709 145.591C24.4966 145.209 23.5164 143.747 23.5204 142.024C23.5384 136.039 23.1424 130.394 22.3302 125.029C22.0522 123.195 23.7944 121.699 25.2587 122.513C27.159 123.569 29.1813 124.393 31.3237 124.949C33.4681 125.506 35.6344 125.77 37.8088 125.772C39.4911 125.772 40.2852 127.926 39.149 129.394ZM32.826 119.182C12.0445 113.79 4.27508 77.4173 11.4603 49.7246C18.9756 20.7636 41.6435 1.49831 61.993 6.77921C82.3425 12.0601 92.7843 39.9169 85.269 68.8778C78.0817 96.5706 53.6096 124.575 32.826 119.182Z" fill="#D3D5F2"/>
<g opacity="0.46">
<path d="M83.3891 27.2228L82.485 30.7054L79.0863 29.8233L80.0926 25.9466L83.1931 26.7507C83.0231 26.3567 82.841 25.9726 82.663 25.5865L80.3427 24.9844L81.0187 22.38C80.8146 22.0199 80.6106 21.6599 80.3986 21.3078L79.5024 24.7644L76.1039 23.8822L77.11 20.0056L80.0666 20.7717C79.8046 20.3536 79.5384 19.9416 79.2624 19.5375L77.3601 19.0434L77.7642 17.4872C77.5402 17.2031 77.3101 16.9291 77.0821 16.653L76.5179 18.8254L73.1213 17.9432L74.1275 14.0666L74.8957 14.2666C74.3956 13.7725 73.8815 13.2964 73.3575 12.8404L70.1368 12.0042L70.4929 10.634C70.2389 10.462 69.9808 10.2999 69.7228 10.1379L69.2947 11.7862L65.8961 10.904L66.5422 8.4136C66.2742 8.28958 66.0121 8.15756 65.7401 8.04154L65.054 10.686L61.6575 9.80384L62.4136 6.89333C62.2735 6.85333 62.1354 6.80533 61.9954 6.76732C61.8554 6.73131 61.7134 6.7073 61.5714 6.6733L60.8172 9.5838L57.4187 8.70164L58.1048 6.05719C57.8108 6.02519 57.5167 6.01319 57.2226 5.99119L56.5765 8.4816L53.178 7.59946L53.606 5.95117C53.302 5.96717 52.9959 5.98318 52.6918 6.00918L52.3358 7.37943L49.1153 6.54328C48.4352 6.68531 47.7551 6.85134 47.077 7.04137L47.845 7.2414L46.8389 11.1181L43.4423 10.2359L44.0064 8.06353C43.6723 8.19155 43.3363 8.31959 43.0042 8.45961L42.6001 10.0179L40.6959 9.52379C40.2598 9.74183 39.8257 9.97387 39.3936 10.2119L42.3501 10.978L41.3439 14.8547L37.9454 13.9725L38.8435 10.514C38.4874 10.718 38.1334 10.932 37.7793 11.1481L37.1032 13.7525L34.7829 13.1504C34.4388 13.4005 34.0947 13.6465 33.7546 13.9085L36.8551 14.7127L35.849 18.5893L32.4504 17.7072L33.3545 14.2246C32.9724 14.5246 32.5924 14.8327 32.2143 15.1487L31.6082 17.4872L30.034 17.0791C29.7519 17.3431 29.4759 17.6172 29.1999 17.8892L31.3582 18.4493L30.352 22.324L26.9535 21.4418L27.3955 19.7335C26.9674 20.1916 26.5474 20.6637 26.1314 21.1418L26.1113 21.2218L26.0713 21.2118C25.8292 21.4918 25.5832 21.7639 25.3431 22.0499L25.8613 22.184L24.8551 26.0606L22.6728 25.4945C22.4667 25.7806 22.2627 26.0706 22.0586 26.3607L24.6051 27.0208L23.5989 30.8974L20.2024 30.0153L20.5724 28.587C20.0343 29.4292 19.5102 30.2933 19.0021 31.1735L18.104 34.6361L17.2338 34.4101C17.0818 34.7101 16.9357 35.0161 16.7877 35.3202L17.8559 35.5962L16.8497 39.4709L15.0894 39.0148C14.9594 39.3209 14.8334 39.6329 14.7074 39.941L16.5997 40.4311L15.5935 44.3077L13.2831 43.7076C13.1731 44.0217 13.0631 44.3338 12.9571 44.6498L15.3435 45.2699L14.3373 49.1466L11.7949 48.4865C11.7069 48.8065 11.6129 49.1226 11.5289 49.4426L14.0873 50.1067L13.0811 53.9814L10.6187 53.3413C10.5507 53.6654 10.4827 53.9894 10.4207 54.3155L12.8331 54.9416L11.8269 58.8182L9.74854 58.2781C9.70053 58.6082 9.65849 58.9383 9.61449 59.2683L11.5788 59.7784L10.5727 63.655L9.16836 63.291C9.14036 63.6271 9.12246 63.9631 9.09645 64.2992L10.3226 64.6172L9.31646 68.4939L8.88035 68.3799C8.87035 68.7199 8.86633 69.06 8.86033 69.4001L9.06642 69.454L8.85239 70.2822C8.84239 71.7164 8.85836 73.1507 8.91637 74.5769L12.0509 75.3911L11.0448 79.2677L9.19046 78.7856C9.22047 79.1357 9.24644 79.4878 9.28044 79.8358L10.7947 80.2279L9.81252 84.0125C9.92054 84.7247 10.0366 85.4308 10.1606 86.1329L10.3806 85.2848L13.7793 86.1669L12.773 90.0436L10.8468 89.5435C10.9288 89.9075 11.0108 90.2736 11.0968 90.6337L12.5229 91.0037L11.8668 93.5302C12.1289 94.4383 12.409 95.3325 12.703 96.2126L15.5095 96.9407L14.5034 100.817L14.4593 100.805C14.6553 101.259 14.8474 101.716 15.0534 102.158L15.0954 101.998L18.4941 102.88L17.5018 106.7C17.7719 107.14 18.044 107.577 18.328 108.001L21.4786 108.819L20.8344 111.301C21.0625 111.567 21.2965 111.821 21.5325 112.077L22.3206 109.037L25.7193 109.919L24.445 114.83C24.6911 115.03 24.9412 115.224 25.1932 115.414L26.5614 110.139L29.96 111.021L28.3077 117.386C28.5718 117.524 28.8298 117.678 29.0978 117.806L30.8021 111.241L34.2007 112.123L32.4064 119.035C32.5464 119.075 32.6805 119.127 32.8205 119.165C32.9625 119.201 33.1065 119.221 33.2485 119.255L35.0428 112.343L38.4394 113.226L36.7351 119.791C37.0331 119.811 37.3312 119.803 37.6293 119.809L39.2816 113.444L42.6802 114.326L41.3119 119.601C41.624 119.559 41.9361 119.511 42.2481 119.455L43.5223 114.544L46.9209 115.426L46.1327 118.466C46.4628 118.356 46.7909 118.248 47.1209 118.126L47.7651 115.644L50.9135 116.46C51.3656 116.228 51.8177 115.978 52.2678 115.726L53.26 111.905L56.6586 112.787L56.6166 112.947C57.0106 112.661 57.4027 112.355 57.7928 112.055L57.7487 112.043L58.7549 108.167L61.5594 108.895C62.2455 108.269 62.9236 107.625 63.5937 106.956L64.2498 104.43L65.6741 104.8C65.9262 104.526 66.1742 104.248 66.4243 103.968L64.4979 103.468L65.5041 99.5912L68.9026 100.473L68.6826 101.321C69.1327 100.769 69.5788 100.207 70.0189 99.6392L71.001 95.8566L72.5153 96.2486C72.7153 95.9606 72.9073 95.6665 73.1053 95.3765L71.251 94.8944L72.2572 91.0177L75.3917 91.8319C76.1359 90.6137 76.848 89.3694 77.5361 88.1112L77.7502 87.2831L77.9561 87.3371C78.1162 87.0371 78.2783 86.737 78.4363 86.4349L78.0002 86.3229L79.0064 82.4463L80.2325 82.7643C80.3746 82.4583 80.5206 82.1562 80.6586 81.8502L79.2545 81.4861L80.2606 77.6094L82.2249 78.1195C82.347 77.8095 82.471 77.4994 82.589 77.1874L80.5107 76.6473L81.5168 72.7706L83.9292 73.3967C84.0332 73.0807 84.1313 72.7646 84.2293 72.4485L81.7649 71.8085L82.7711 67.9338L85.3295 68.5979C85.4115 68.2759 85.4834 67.9538 85.5614 67.6317L83.019 66.9716L84.0252 63.095L86.4117 63.7151C86.4737 63.387 86.5277 63.061 86.5837 62.7349L84.2733 62.1348L85.2794 58.2581L87.1717 58.7482C87.2117 58.4161 87.2538 58.0841 87.2878 57.752L85.5275 57.296L86.5337 53.4213L87.6018 53.6994C87.6178 53.3613 87.6418 53.0232 87.6538 52.6872L86.7837 52.4611L87.6818 48.9985C87.6658 47.9824 87.6279 46.9742 87.5679 45.976L87.1977 47.4043L83.8011 46.5221L84.8074 42.6455L87.3537 43.3056C87.3177 42.9535 87.2818 42.5994 87.2398 42.2494L85.0575 41.6833L86.0636 37.8066L86.5816 37.9407C86.5116 37.5746 86.4296 37.2165 86.3536 36.8545L86.3137 36.8445L86.3337 36.7645C86.2017 36.1424 86.0636 35.5282 85.9136 34.9181L85.4715 36.6264L82.0729 35.7443L83.0791 31.8696L85.2374 32.4297C85.1274 32.0576 85.0194 31.6836 84.9014 31.3175L83.3271 30.9095L83.9332 28.5711C83.7592 28.125 83.5771 27.6709 83.3891 27.2228ZM12.3029 74.4489L8.90636 73.5667L9.91251 69.6921L13.3091 70.5742L12.3029 74.4489ZM13.5572 69.6121L10.1606 68.7299L11.1668 64.8533L14.5633 65.7354L13.5572 69.6121ZM14.8134 64.7752L11.4168 63.8931L12.423 60.0164L15.8195 60.8986L14.8134 64.7752ZM16.0676 59.9364L12.671 59.0543L13.6772 55.1776L17.0738 56.0598L16.0676 59.9364ZM17.3238 55.0996L13.9272 54.2174L14.9334 50.3428L18.33 51.2249L17.3238 55.0996ZM18.5781 50.2628L15.1815 49.3806L16.1876 45.504L19.5842 46.3861L18.5781 50.2628ZM19.8343 45.4259L16.4377 44.5458L17.4438 40.6691L20.8404 41.5513L19.8343 45.4259ZM21.0885 40.5871L17.6919 39.705L18.6981 35.8303L22.0946 36.7124L21.0885 40.5871ZM22.3447 35.7523L18.9481 34.8701L19.9543 30.9935L23.3508 31.8736L22.3447 35.7523ZM14.0332 85.2247L10.6347 84.3426L11.6408 80.4659L15.0394 81.3481L14.0332 85.2247ZM15.2875 80.3859L11.8889 79.5038L12.8951 75.6271L16.2936 76.5093L15.2875 80.3859ZM16.5437 75.5491L13.1451 74.6669L14.1513 70.7923L17.5498 71.6744L16.5437 75.5491ZM17.7979 70.7123L14.3994 69.8301L15.4055 65.9534L18.804 66.8356L17.7979 70.7123ZM19.0541 65.8754L15.6556 64.9933L16.6617 61.1166L20.0602 61.9988L19.0541 65.8754ZM20.3083 61.0366L16.9097 60.1544L17.916 56.2778L21.3145 57.1599L20.3083 61.0366ZM21.5645 56.1998L18.166 55.3176L19.1722 51.443L22.5707 52.3251L21.5645 56.1998ZM22.8188 51.3629L19.4201 50.4808L20.4264 46.6041L23.8249 47.4863L22.8188 51.3629ZM24.075 46.5261L20.6764 45.644L21.6826 41.7673L25.0811 42.6495L24.075 46.5261ZM25.3292 41.6873L21.9306 40.8051L22.9367 36.9305L26.3354 37.8126L25.3292 41.6873ZM26.5854 36.8525L23.1868 35.9703L24.193 32.0936L27.5916 32.9758L26.5854 36.8525ZM27.8397 32.0136L24.441 31.1315L25.4472 27.2548L28.8458 28.137L27.8397 32.0136ZM29.0958 27.1768L25.6972 26.2947L26.7035 22.418L30.102 23.3001L29.0958 27.1768ZM15.7635 95.9986L12.365 95.1164L13.3711 91.2418L16.7698 92.1239L15.7635 95.9986ZM17.0177 91.1638L13.6192 90.2816L14.6254 86.4049L18.0239 87.2871L17.0177 91.1638ZM18.272 86.3249L14.8734 85.4428L15.8796 81.5661L19.2781 82.4483L18.272 86.3249ZM19.5282 81.4881L16.1296 80.6059L17.1358 76.7293L20.5343 77.6114L19.5282 81.4881ZM20.7844 76.6493L17.3858 75.7671L18.392 71.8925L21.7905 72.7746L20.7844 76.6493ZM22.0386 71.8125L18.6401 70.9303L19.6462 67.0536L23.0448 67.9358L22.0386 71.8125ZM23.2929 66.9756L19.8942 66.0935L20.9005 62.2168L24.299 63.099L23.2929 66.9756ZM24.549 62.1368L21.1505 61.2546L22.1567 57.378L25.5552 58.2601L24.549 62.1368ZM25.8052 57.3L22.4067 56.4178L23.4129 52.5432L26.8114 53.4253L25.8052 57.3ZM27.0595 52.4631L23.6608 51.581L24.6671 47.7043L28.0656 48.5865L27.0595 52.4631ZM28.3157 47.6263L24.9172 46.7442L25.9233 42.8675L29.3218 43.7496L28.3157 47.6263ZM29.5699 42.7875L26.1713 41.9053L27.1776 38.0307L30.5761 38.9128L29.5699 42.7875ZM30.8242 37.9527L27.4255 37.0705L28.4317 33.1938L31.8303 34.076L30.8242 37.9527ZM32.0804 33.1138L28.6817 32.2317L29.6879 28.355L33.0865 29.2372L32.0804 33.1138ZM33.3346 28.277L29.936 27.3948L30.9421 23.5182L34.3408 24.4003L33.3346 28.277ZM34.5908 23.4382L31.1922 22.556L32.1983 18.6814L35.597 19.5635L34.5908 23.4382ZM18.748 101.938L15.3495 101.055L16.3556 97.1788L19.7543 98.0609L18.748 101.938ZM20.0023 97.0988L16.6037 96.2166L17.6099 92.342L21.0084 93.2241L20.0023 97.0988ZM21.2584 92.2639L17.8599 91.3818L18.8661 87.5051L22.2646 88.3873L21.2584 92.2639ZM22.5127 87.4251L19.1142 86.543L20.1203 82.6663L23.5188 83.5485L22.5127 87.4251ZM23.7689 82.5883L20.3704 81.7061L21.3765 77.8295L24.775 78.7116L23.7689 82.5883ZM25.0231 77.7495L21.6246 76.8673L22.6308 72.9926L26.0293 73.8748L25.0231 77.7495ZM26.2793 72.9146L22.8808 72.0325L23.8869 68.1558L27.2855 69.038L26.2793 72.9146ZM27.5336 68.0758L24.135 67.1936L25.1412 63.317L28.5397 64.1991L27.5336 68.0758ZM28.7898 63.239L25.3912 62.3568L26.3974 58.4802L29.7959 59.3623L28.7898 63.239ZM30.044 58.4002L26.6454 57.518L27.6516 53.6434L31.0502 54.5255L30.044 58.4002ZM31.3002 53.5633L27.9017 52.6812L28.9078 48.8045L32.3064 49.6867L31.3002 53.5633ZM32.5544 48.7265L29.1558 47.8444L30.1619 43.9677L33.5606 44.8498L32.5544 48.7265ZM33.8106 43.8877L30.412 43.0055L31.4183 39.1309L34.8168 40.013L33.8106 43.8877ZM35.0649 39.0528L31.6662 38.1707L32.6724 34.294L36.071 35.1762L35.0649 39.0528ZM36.3211 34.214L32.9224 33.3319L33.9287 29.4552L37.3272 30.3373L36.3211 34.214ZM37.5753 29.3772L34.1767 28.495L35.1828 24.6184L38.5815 25.5005L37.5753 29.3772ZM38.8315 24.5384L35.4329 23.6562L36.439 19.7815L39.8377 20.6637L38.8315 24.5384ZM40.0858 19.7035L36.6871 18.8214L37.6933 14.9447L41.0919 15.8269L40.0858 19.7035ZM21.7306 107.875L18.334 106.992L19.3401 103.116L22.7367 103.998L21.7306 107.875ZM22.9868 103.038L19.5902 102.156L20.5963 98.279L23.9929 99.1611L22.9868 103.038ZM24.241 98.199L20.8444 97.3168L21.8506 93.4422L25.2472 94.3223L24.241 98.199ZM25.4972 93.3621L22.1006 92.48L23.1068 88.6033L26.5034 89.4855L25.4972 93.3621ZM26.7515 88.5253L23.3549 87.6432L24.361 83.7665L27.7576 84.6487L26.7515 88.5253ZM28.0076 83.6865L24.6111 82.8043L25.6172 78.9277L29.0138 79.8078L28.0076 83.6865ZM29.2619 78.8497L25.8653 77.9675L26.8715 74.0928L30.268 74.975L29.2619 78.8497ZM30.5181 74.0128L27.1215 73.1307L28.1277 69.254L31.5242 70.1342L30.5181 74.0128ZM31.7723 69.176L28.3758 68.2959L29.3819 64.4192L32.7785 65.3013L31.7723 69.176ZM33.0285 64.3372L29.632 63.455L30.6381 59.5784L34.0347 60.4605L33.0285 64.3372ZM34.2847 59.5003L30.8881 58.6182L31.8943 54.7435L35.2909 55.6257L34.2847 59.5003ZM35.539 54.6635L32.1424 53.7813L33.1485 49.9047L36.5451 50.7868L35.539 54.6635ZM36.7931 49.8267L33.3965 48.9445L34.4028 45.0679L37.7994 45.95L36.7931 49.8267ZM38.0494 44.9879L34.6528 44.1057L35.659 40.2311L39.0556 41.1132L38.0494 44.9879ZM39.3035 40.153L35.9069 39.2709L36.9131 35.3942L40.3098 36.2764L39.3035 40.153ZM40.5598 35.3142L37.1631 34.4341L38.1694 30.5574L41.566 31.4375L40.5598 35.3142ZM41.814 30.4774L38.4174 29.5952L39.4235 25.7186L42.8201 26.5987L41.814 30.4774ZM43.0702 25.6385L39.6736 24.7564L40.6799 20.8817L44.0764 21.7619L43.0702 25.6385ZM44.3244 20.8017L40.9278 19.9216L41.934 16.0449L45.3306 16.927L44.3244 20.8017ZM45.5806 15.9649L42.184 15.0827L43.1902 11.2061L46.5869 12.0882L45.5806 15.9649ZM25.9713 108.975L22.5728 108.093L23.5789 104.216L26.9774 105.098L25.9713 108.975ZM27.2275 104.138L23.829 103.256L24.8351 99.3792L28.2336 100.261L27.2275 104.138ZM28.4817 99.2991L25.0832 98.417L26.0894 94.5424L29.4879 95.4245L28.4817 99.2991ZM29.7379 94.4643L26.3394 93.5822L27.3455 89.7055L30.7441 90.5877L29.7379 94.4643ZM30.9922 89.6255L27.5935 88.7434L28.5998 84.8667L31.9983 85.7488L30.9922 89.6255ZM32.2484 84.7867L28.8498 83.9045L29.856 80.0278L33.2545 80.91L32.2484 84.7867ZM33.5026 79.9498L30.104 79.0677L31.1102 75.193L34.5088 76.0752L33.5026 79.9498ZM34.7588 75.113L31.3603 74.2309L32.3664 70.3542L35.765 71.2364L34.7588 75.113ZM36.013 70.2762L32.6144 69.394L33.6205 65.5174L37.0192 66.3995L36.013 70.2762ZM37.2692 65.4374L33.8706 64.5552L34.8769 60.6786L38.2754 61.5607L37.2692 65.4374ZM38.5235 60.6005L35.1248 59.7184L36.131 55.8437L39.5296 56.7259L38.5235 60.6005ZM39.7797 55.7637L36.381 54.8815L37.3873 51.0049L40.7858 51.887L39.7797 55.7637ZM41.0339 50.9269L37.6353 50.0447L38.6414 46.168L42.0401 47.0502L41.0339 50.9269ZM42.2901 46.088L38.8915 45.2059L39.8976 41.3312L43.2963 42.2134L42.2901 46.088ZM43.5442 41.2532L40.1457 40.3711L41.1519 36.4944L44.5505 37.3766L43.5442 41.2532ZM44.8006 36.4144L41.4019 35.5322L42.4081 31.6556L45.8067 32.5377L44.8006 36.4144ZM46.0547 31.5776L42.6562 30.6954L43.6623 26.8187L47.061 27.7009L46.0547 31.5776ZM47.311 26.7387L43.9124 25.8566L44.9185 21.9819L48.3172 22.8641L47.311 26.7387ZM48.5651 21.9019L45.1666 21.0198L46.1727 17.1431L49.5713 18.0252L48.5651 21.9019ZM49.8213 17.0651L46.4228 16.1829L47.4289 12.3063L50.8276 13.1884L49.8213 17.0651ZM51.0756 12.2262L47.677 11.3441L48.6832 7.46744L52.0817 8.34959L51.0756 12.2262ZM30.212 110.075L26.8135 109.193L27.8196 105.316L31.2182 106.198L30.212 110.075ZM31.4662 105.238L28.0676 104.356L29.0739 100.479L32.4724 101.362L31.4662 105.238ZM32.7224 100.399L29.3239 99.5172L30.3301 95.6425L33.7286 96.5247L32.7224 100.399ZM33.9767 95.5645L30.578 94.6824L31.5843 90.8057L34.9828 91.6879L33.9767 95.5645ZM35.2329 90.7257L31.8344 89.8435L32.8405 85.9669L36.239 86.849L35.2329 90.7257ZM36.4891 85.8889L33.0905 85.0067L34.0967 81.1301L37.4952 82.0122L36.4891 85.8889ZM37.7433 81.05L34.3447 80.1679L35.3509 76.2932L38.7495 77.1754L37.7433 81.05ZM38.9976 76.2152L35.5989 75.333L36.6051 71.4564L40.0037 72.3385L38.9976 76.2152ZM40.2538 71.3764L36.8551 70.4942L37.8614 66.6176L41.2599 67.4997L40.2538 71.3764ZM41.51 66.5376L38.1114 65.6554L39.1176 61.7787L42.5161 62.6609L41.51 66.5376ZM42.7642 61.7007L39.3655 60.8186L40.3717 56.9439L43.7704 57.826L42.7642 61.7007ZM44.0183 56.8639L40.6198 55.9817L41.6259 52.1051L45.0246 52.9872L44.0183 56.8639ZM45.2746 52.0271L41.876 51.1449L42.8821 47.2682L46.2808 48.1504L45.2746 52.0271ZM46.5308 47.1882L43.1322 46.3061L44.1385 42.4314L47.537 43.3136L46.5308 47.1882ZM47.7851 42.3534L44.3864 41.4713L45.3926 37.5946L48.7912 38.4768L47.7851 42.3534ZM49.0392 37.5146L45.6407 36.6324L46.6468 32.7558L50.0454 33.6379L49.0392 37.5146ZM50.2954 32.6777L46.8969 31.7956L47.903 27.9189L51.3017 28.8011L50.2954 32.6777ZM51.5517 27.8389L48.1531 26.9568L49.1592 23.0821L52.5579 23.9643L51.5517 27.8389ZM52.8058 23.0041L49.4073 22.1219L50.4135 18.2453L53.8121 19.1274L52.8058 23.0041ZM54.0601 18.1653L50.6616 17.2831L51.6677 13.4065L55.0662 14.2886L54.0601 18.1653ZM55.3163 13.3264L51.9177 12.4443L52.9239 8.56763L56.3224 9.44977L55.3163 13.3264ZM34.4527 111.175L31.0542 110.293L32.0603 106.416L35.4589 107.299L34.4527 111.175ZM35.707 106.338L32.3084 105.456L33.3146 101.58L36.7131 102.462L35.707 106.338ZM36.9632 101.5L33.5646 100.617L34.5708 96.7427L37.9693 97.6249L36.9632 101.5ZM38.2174 96.6647L34.8188 95.7826L35.825 91.9059L39.2236 92.788L38.2174 96.6647ZM39.4736 91.8259L36.0751 90.9437L37.0812 87.0671L40.4798 87.9492L39.4736 91.8259ZM40.7278 86.9891L37.3292 86.1069L38.3355 82.2302L41.734 83.1124L40.7278 86.9891ZM41.984 82.1502L38.5855 81.2681L39.5917 77.3934L42.9902 78.2756L41.984 82.1502ZM43.2383 77.3154L39.8396 76.4332L40.8458 72.5566L44.2444 73.4387L43.2383 77.3154ZM44.4945 72.4766L41.0958 71.5944L42.1021 67.7178L45.5006 68.5999L44.4945 72.4766ZM45.7487 67.6377L42.3501 66.7556L43.3562 62.8789L46.7549 63.7611L45.7487 67.6377ZM47.0049 62.8009L43.6063 61.9188L44.6125 58.0441L48.0111 58.9262L47.0049 62.8009ZM48.2592 57.9641L44.8605 57.0819L45.8667 53.2053L49.2653 54.0874L48.2592 57.9641ZM49.5154 53.1272L46.1167 52.2451L47.1229 48.3684L50.5215 49.2506L49.5154 53.1272ZM50.7695 48.2884L47.371 47.4063L48.3771 43.5316L51.7758 44.4137L50.7695 48.2884ZM52.0258 43.4536L48.6271 42.5715L49.6333 38.6948L53.032 39.5769L52.0258 43.4536ZM53.2799 38.6148L49.8814 37.7326L50.8875 33.856L54.2862 34.7381L53.2799 38.6148ZM54.5362 33.7779L51.1376 32.8958L52.1437 29.0191L55.5424 29.9013L54.5362 33.7779ZM55.7904 28.9391L52.3918 28.057L53.398 24.1823L56.7965 25.0644L55.7904 28.9391ZM57.0466 24.1043L53.648 23.2221L54.6542 19.3455L58.0528 20.2276L57.0466 24.1043ZM58.3008 19.2655L54.9023 18.3833L55.9084 14.5066L59.307 15.3888L58.3008 19.2655ZM59.557 14.4286L56.1585 13.5465L57.1646 9.66981L60.5633 10.552L59.557 14.4286ZM38.6915 112.275L35.2949 111.393L36.3011 107.517L39.6976 108.399L38.6915 112.275ZM39.9457 107.439L36.5491 106.556L37.5553 102.68L40.9519 103.56L39.9457 107.439ZM41.2019 102.6L37.8053 101.72L38.8115 97.8449L42.2081 98.7271L41.2019 102.6ZM42.4562 97.7629L39.0596 96.8828L40.0657 93.0061L43.4623 93.8882L42.4562 97.7629ZM43.7124 92.926L40.3158 92.0459L41.3219 88.1693L44.7185 89.0514L43.7124 92.926ZM44.9665 88.0892L41.5699 87.2071L42.5762 83.3304L45.9728 84.2126L44.9665 88.0892ZM46.2228 83.2504L42.8262 82.3682L43.8324 78.4936L47.229 79.3758L46.2228 83.2504ZM47.4769 78.4136L44.0803 77.5314L45.0866 73.6548L48.4832 74.5369L47.4769 78.4136ZM48.7332 73.5768L45.3367 72.6946L46.3428 68.8179L49.7394 69.7001L48.7332 73.5768ZM49.9874 68.7379L46.5908 67.8558L47.5969 63.9791L50.9935 64.8612L49.9874 68.7379ZM51.2436 63.9011L47.847 63.019L48.8533 59.1443L52.2498 60.0244L51.2436 63.9011ZM52.4978 59.0643L49.1012 58.1841L50.1074 54.3074L53.504 55.1876L52.4978 59.0643ZM53.754 54.2274L50.3574 53.3473L51.3637 49.4706L54.7603 50.3528L53.754 54.2274ZM55.0082 49.3886L51.6117 48.5065L52.6178 44.6318L56.0144 45.5139L55.0082 49.3886ZM56.2644 44.5538L52.8679 43.6716L53.874 39.795L57.2706 40.6771L56.2644 44.5538ZM57.5187 39.7149L54.1221 38.8328L55.1283 34.9561L58.5248 35.8383L57.5187 39.7149ZM58.7749 34.8781L55.3783 33.996L56.3845 30.1193L59.781 31.0015L58.7749 34.8781ZM60.0291 30.0393L56.6325 29.1592L57.6387 25.2845L61.0353 26.1666L60.0291 30.0393ZM61.2853 25.2045L57.8887 24.3223L58.8949 20.4457L62.2915 21.3258L61.2853 25.2045ZM62.5396 20.3656L59.143 19.4855L60.1491 15.6088L63.5457 16.491L62.5396 20.3656ZM63.7958 15.5268L60.3992 14.6447L61.4053 10.768L64.8019 11.6502L63.7958 15.5268ZM42.9322 113.376L39.5337 112.493L40.5398 108.617L43.9384 109.499L42.9322 113.376ZM44.1864 108.539L40.7878 107.657L41.7939 103.78L45.1926 104.662L44.1864 108.539ZM45.4426 103.7L42.044 102.818L43.0503 98.9431L46.4488 99.8252L45.4426 103.7ZM46.6969 98.8651L43.2982 97.9829L44.3044 94.1063L47.703 94.9884L46.6969 98.8651ZM47.9531 94.0262L44.5544 93.1441L45.5607 89.2674L48.9592 90.1496L47.9531 94.0262ZM49.2073 89.1894L45.8087 88.3073L46.8148 84.4306L50.2135 85.3127L49.2073 89.1894ZM50.4635 84.3506L47.0649 83.4684L48.071 79.5938L51.4697 80.4759L50.4635 84.3506ZM51.7176 79.5138L48.3191 78.6316L49.3253 74.7549L52.7239 75.6371L51.7176 79.5138ZM52.974 74.677L49.5753 73.7948L50.5815 69.9181L53.9801 70.8003L52.974 74.677ZM54.2281 69.8381L50.8295 68.956L51.8357 65.0793L55.2344 65.9614L54.2281 69.8381ZM55.4844 65.0013L52.0857 64.1191L53.0919 60.2445L56.4906 61.1266L55.4844 65.0013ZM56.7385 60.1645L53.34 59.2823L54.3461 55.4057L57.7447 56.2878L56.7385 60.1645ZM57.9947 55.3276L54.5962 54.4455L55.6023 50.5688L59.001 51.451L57.9947 55.3276ZM59.249 50.4888L55.8504 49.6067L56.8566 45.732L60.2551 46.6141L59.249 50.4888ZM60.5052 45.654L57.1066 44.7718L58.1128 40.8952L61.5114 41.7773L60.5052 45.654ZM61.7594 40.8151L58.3609 39.933L59.367 36.0563L62.7656 36.9385L61.7594 40.8151ZM63.0156 35.9783L59.6171 35.0962L60.6232 31.2195L64.0217 32.1017L63.0156 35.9783ZM64.2698 31.1395L60.8713 30.2573L61.8775 26.3827L65.276 27.2648L64.2698 31.1395ZM65.526 26.3027L62.1275 25.4205L63.1337 21.5439L66.5322 22.426L65.526 26.3027ZM66.7803 21.4658L63.3817 20.5837L64.3879 16.707L67.7864 17.5892L66.7803 21.4658ZM68.0365 16.627L64.6379 15.7449L65.6441 11.8682L69.0426 12.7503L68.0365 16.627ZM47.1729 114.476L43.7744 113.594L44.7805 109.717L48.1791 110.599L47.1729 114.476ZM48.4272 109.639L45.0285 108.757L46.0348 104.88L49.4333 105.762L48.4272 109.639ZM49.6834 104.8L46.2848 103.918L47.291 100.043L50.6895 100.925L49.6834 104.8ZM50.9376 99.9653L47.5389 99.0831L48.5451 95.2065L51.9438 96.0886L50.9376 99.9653ZM52.1917 95.1264L48.7932 94.2443L49.7993 90.3676L53.198 91.2498L52.1917 95.1264ZM53.448 90.2896L50.0494 89.4075L51.0555 85.5308L54.4542 86.4129L53.448 90.2896ZM54.7042 85.4508L51.3056 84.5686L52.3119 80.694L55.7104 81.5761L54.7042 85.4508ZM55.9585 80.6139L52.5598 79.7318L53.566 75.8551L56.9646 76.7373L55.9585 80.6139ZM57.2126 75.7771L53.8141 74.895L54.8202 71.0183L58.2188 71.9005L57.2126 75.7771ZM58.4688 70.9403L55.0703 70.0582L56.0764 66.1815L59.4751 67.0637L58.4688 70.9403ZM59.7251 66.1015L56.3265 65.2193L57.3326 61.3447L60.7313 62.2268L59.7251 66.1015ZM60.9792 61.2647L57.5807 60.3825L58.5869 56.5058L61.9855 57.388L60.9792 61.2647ZM62.2335 56.4278L58.8349 55.5457L59.8411 51.669L63.2396 52.5512L62.2335 56.4278ZM63.4897 51.589L60.0911 50.7068L61.0973 46.8322L64.4958 47.7143L63.4897 51.589ZM64.7439 46.7542L61.3454 45.872L62.3515 41.9953L65.7501 42.8775L64.7439 46.7542ZM66.0001 41.9153L62.6016 41.0332L63.6077 37.1565L67.0063 38.0387L66.0001 41.9153ZM67.2563 37.0785L63.8578 36.1964L64.8639 32.3197L68.2626 33.2018L67.2563 37.0785ZM68.5106 32.2397L65.112 31.3575L66.1182 27.4829L69.5167 28.365L68.5106 32.2397ZM69.7648 27.4049L66.3663 26.5227L67.3724 22.646L70.771 23.5282L69.7648 27.4049ZM71.021 22.566L67.6225 21.6839L68.6286 17.8072L72.0271 18.6894L71.021 22.566ZM72.2772 17.7292L68.8787 16.847L69.8848 12.9704L73.2833 13.8525L72.2772 17.7292ZM51.4096 115.576L48.013 114.696L49.0192 110.819L52.4158 111.699L51.4096 115.576ZM52.6658 110.739L49.2692 109.859L50.2755 105.982L53.6721 106.864L52.6658 110.739ZM53.9221 105.9L50.5255 105.018L51.5317 101.143L54.9283 102.026L53.9221 105.9ZM55.1762 101.065L51.7797 100.183L52.7859 96.3066L56.1825 97.1888L55.1762 101.065ZM56.4305 96.2266L53.0339 95.3445L54.0401 91.4678L57.4366 92.35L56.4305 96.2266ZM57.6867 91.3878L54.2901 90.5057L55.2963 86.629L58.6928 87.5112L57.6867 91.3878ZM58.9429 86.551L55.5463 85.6688L56.5526 81.7942L59.9492 82.6763L58.9429 86.551ZM60.1971 81.7141L56.8005 80.832L57.8067 76.9553L61.2033 77.8375L60.1971 81.7141ZM61.4514 76.8773L58.0548 75.9952L59.0609 72.1185L62.4575 72.9987L61.4514 76.8773ZM62.7076 72.0385L59.311 71.1583L60.3171 67.2817L63.7137 68.1638L62.7076 72.0385ZM63.9638 67.2017L60.5672 66.3195L61.5733 62.4448L64.9699 63.327L63.9638 67.2017ZM65.218 62.3648L61.8214 61.4827L62.8276 57.606L66.2242 58.4882L65.218 62.3648ZM66.4722 57.528L63.0757 56.6459L64.0818 52.7692L67.4784 53.6514L66.4722 57.528ZM67.7284 52.6892L64.3319 51.807L65.338 47.9324L68.7346 48.8145L67.7284 52.6892ZM68.9827 47.8543L65.5861 46.9722L66.5923 43.0955L69.9888 43.9777L68.9827 47.8543ZM70.2389 43.0155L66.8423 42.1334L67.8485 38.2567L71.245 39.1389L70.2389 43.0155ZM71.4951 38.1787L68.0985 37.2965L69.1047 33.4199L72.5012 34.3L71.4951 38.1787ZM72.7493 33.3399L69.3527 32.4597L70.3589 28.5851L73.7555 29.4672L72.7493 33.3399ZM74.0055 28.503L70.6089 27.6209L71.6151 23.7442L75.0117 24.6244L74.0055 28.503ZM75.2598 23.6662L71.8632 22.7841L72.8693 18.9074L76.2659 19.7895L75.2598 23.6662ZM56.9066 111.839L53.508 110.957L54.5141 107.08L57.9128 107.963L56.9066 111.839ZM58.1608 107L54.7622 106.118L55.7684 102.244L59.1669 103.126L58.1608 107ZM59.417 102.166L56.0184 101.283L57.0246 97.4068L60.4232 98.289L59.417 102.166ZM60.6712 97.3268L57.2727 96.4447L58.2788 92.568L61.6774 93.4502L60.6712 97.3268ZM61.9274 92.49L58.5289 91.6078L59.535 87.7312L62.9337 88.6133L61.9274 92.49ZM63.1816 87.6512L59.7831 86.769L60.7893 82.8943L64.1878 83.7765L63.1816 87.6512ZM64.4378 82.8143L61.0393 81.9322L62.0455 78.0555L65.444 78.9377L64.4378 82.8143ZM65.6921 77.9775L62.2935 77.0954L63.2997 73.2187L66.6982 74.1008L65.6921 77.9775ZM66.9483 73.1387L63.5497 72.2565L64.5559 68.3799L67.9544 69.262L66.9483 73.1387ZM68.2025 68.3018L64.804 67.4197L65.8101 63.545L69.2087 64.4272L68.2025 68.3018ZM69.4587 63.465L66.0602 62.5829L67.0663 58.7062L70.4649 59.5883L69.4587 63.465ZM70.713 58.6282L67.3144 57.746L68.3206 53.8694L71.7191 54.7515L70.713 58.6282ZM71.9692 53.7894L68.5706 52.9072L69.5768 49.0326L72.9753 49.9147L71.9692 53.7894ZM73.2234 48.9545L69.8247 48.0724L70.831 44.1957L74.2296 45.0779L73.2234 48.9545ZM74.4796 44.1157L71.0811 43.2336L72.0872 39.3569L75.4857 40.2391L74.4796 44.1157ZM75.7338 39.2789L72.3352 38.3967L73.3415 34.5201L76.74 35.4022L75.7338 39.2789ZM76.99 34.4401L73.5915 33.5579L74.5977 29.6832L77.9962 30.5654L76.99 34.4401ZM78.2443 29.6032L74.8456 28.7211L75.8518 24.8444L79.2504 25.7266L78.2443 29.6032ZM62.4015 108.101L59.0029 107.219L60.0091 103.344L63.4078 104.226L62.4015 108.101ZM63.6578 103.266L60.2591 102.384L61.2653 98.507L64.6639 99.3892L63.6578 103.266ZM64.9119 98.427L61.5134 97.5449L62.5195 93.6682L65.9181 94.5504L64.9119 98.427ZM66.1681 93.5902L62.7696 92.708L63.7757 88.8314L67.1744 89.7135L66.1681 93.5902ZM67.4224 88.7514L64.0238 87.8692L65.03 83.9945L68.4285 84.8767L67.4224 88.7514ZM68.6786 83.9165L65.28 83.0344L66.2862 79.1577L69.6848 80.0399L68.6786 83.9165ZM69.9328 79.0777L66.5343 78.1955L67.5404 74.3189L70.9389 75.201L69.9328 79.0777ZM71.189 74.2389L67.7905 73.3567L68.7966 69.4801L72.1951 70.3622L71.189 74.2389ZM72.4432 69.402L69.0447 68.5199L70.0509 64.6452L73.4494 65.5274L72.4432 69.402ZM73.6994 64.5652L70.3009 63.6831L71.3071 59.8064L74.7056 60.6885L73.6994 64.5652ZM74.9537 59.7284L71.5551 58.8462L72.5613 54.9696L75.9598 55.8517L74.9537 59.7284ZM76.2099 54.8895L72.8113 54.0074L73.8175 50.1327L77.216 51.0149L76.2099 54.8895ZM77.4641 50.0547L74.0656 49.1726L75.0717 45.2959L78.4703 46.1781L77.4641 50.0547ZM78.7203 45.2159L75.3218 44.3337L76.3279 40.4571L79.7265 41.3392L78.7203 45.2159ZM79.9746 40.3791L76.5759 39.4969L77.5822 35.6203L80.9807 36.5024L79.9746 40.3791ZM81.2307 35.5402L77.8322 34.6581L78.8384 30.7834L82.2369 31.6656L81.2307 35.5402ZM83.5532 47.4963L86.9497 48.3784L85.9436 52.2551L82.547 51.375L83.5532 47.4963ZM82.297 52.3351L85.6935 53.2153L84.6874 57.0899L81.2908 56.2078L82.297 52.3351ZM81.0427 57.1699L84.4393 58.0501L83.4332 61.9268L80.0366 61.0446L81.0427 57.1699ZM79.7885 62.0088L83.1851 62.8909L82.1789 66.7676L78.7823 65.8854L79.7885 62.0088ZM78.5323 66.8456L81.9289 67.7277L80.9227 71.6024L77.5261 70.7203L78.5323 66.8456ZM77.278 71.6824L80.6746 72.5646L79.6685 76.4412L76.2719 75.5591L77.278 71.6824ZM76.0218 76.5192L79.4184 77.4014L78.4123 81.2781L75.0157 80.3959L76.0218 76.5192ZM74.7657 81.3581L78.1622 82.2402L77.1561 86.1169L73.7595 85.2348L74.7657 81.3581ZM73.5114 86.1949L76.908 87.0771L75.9018 90.9517L72.5053 90.0696L73.5114 86.1949ZM69.1526 99.5272L65.7541 98.645L66.7603 94.7684L70.1589 95.6505L69.1526 99.5272ZM70.409 94.6904L67.0103 93.8082L68.0165 89.9315L71.4151 90.8137L70.409 94.6904ZM71.6631 89.8515L68.2645 88.9694L69.2707 85.0947L72.6692 85.9769L71.6631 89.8515ZM72.9173 85.0147L69.5188 84.1326L70.5249 80.2559L73.9235 81.1381L72.9173 85.0147ZM74.1735 80.1779L70.775 79.2957L71.7811 75.4191L75.1797 76.3012L74.1735 80.1779ZM75.4297 75.341L72.0312 74.4589L73.0373 70.5822L76.436 71.4644L75.4297 75.341ZM76.684 70.5022L73.2854 69.6201L74.2916 65.7454L77.6901 66.6276L76.684 70.5022ZM77.9382 65.6654L74.5397 64.7832L75.5458 60.9066L78.9443 61.7887L77.9382 65.6654ZM79.1944 60.8286L75.7959 59.9464L76.802 56.0698L80.2005 56.9519L79.1944 60.8286ZM80.4506 55.9897L77.0521 55.1076L78.0582 51.2329L81.4567 52.1151L80.4506 55.9897ZM81.7048 51.1549L78.3063 50.2728L79.3125 46.3961L82.711 47.2783L81.7048 51.1549ZM82.961 46.3161L79.5625 45.4339L80.5686 41.5573L83.9672 42.4394L82.961 46.3161ZM85.2214 37.6026L84.2153 41.4793L80.8167 40.5971L81.8229 36.7204L85.2214 37.6026Z" fill="#FFF6E3"/>
</g>
<path d="M162.716 108.288C146.529 103.987 123.599 120.162 118.208 141.909C117.55 144.562 116.66 147.152 115.483 149.619L88.9849 205.144C88.9849 205.144 45.4155 192.99 39.2724 189.712C33.1274 186.433 32.2912 169.116 27.2623 165.485C22.2354 161.855 20.6652 159.9 20.1931 162.971C19.721 166.044 24.1898 169.952 24.4698 174.981C24.7499 180.008 21.5294 182.554 23.9778 191.754C24.966 195.469 26.0562 199.687 27.0043 203.396C28.5786 209.553 33.1534 214.486 39.1684 216.534L88.8568 233.449C100.009 237.246 112.259 232.313 117.67 221.849L137.861 182.8L162.716 108.288Z" fill="#FA9999"/>
<path d="M138.258 138.74C138.258 138.74 122.434 164.875 128.389 201.115L137.636 184.572L138.258 138.74Z" fill="#1B2236"/>
<path d="M216.525 318.801C216.525 318.801 231.42 366.747 250.227 399.889C269.032 433.031 281.693 438.243 298.079 432.659C314.464 427.074 380.277 357.678 390.057 352.411C402.159 345.894 412.587 350.921 412.587 350.921C412.587 350.921 417.986 320.875 395.644 314.24C395.644 314.24 389.685 324.668 382.61 329.135C375.535 333.604 313.53 344.403 298.824 366.001L293.917 314.24L216.525 318.801Z" fill="#FA9999"/>
<path d="M297.455 351.578L293.917 314.248L216.525 318.807C216.525 318.807 231.42 366.753 250.225 399.895C251.135 401.499 252.027 403.019 252.912 404.495C260.847 381.702 280.538 363.534 297.455 351.578Z" fill="#DE7373"/>
<path d="M293.917 314.248L216.525 318.807C216.525 318.807 224.599 344.779 236.355 371.706C249.775 351.21 276.55 335.306 295.379 329.685L293.917 314.248Z" fill="#1B2236"/>
<path d="M173.399 312.686C173.399 312.686 140.063 377.737 133.796 398.962C127.527 420.188 125.293 440.297 125.293 440.297C125.293 440.297 108.536 546.428 101.275 571.562C94.0133 596.698 75.5801 611.779 75.5801 611.779C75.5801 611.779 101.275 628.536 130.88 620.158C130.88 620.158 126.969 612.897 129.203 598.933C131.438 584.968 144.844 534.696 158.808 513.47C171.555 494.095 180.692 453.776 175.339 430.324C174.399 426.203 175.807 421.908 178.904 419.03C196.615 402.563 251.948 349.852 268.797 318.807L173.399 312.686Z" fill="#FA9999"/>
<path d="M268.796 318.802L177.7 312.959L168.45 322.463C168.406 322.551 168.364 322.633 168.32 322.723C184.237 314.917 227.883 340.88 252.219 342.662C259.134 334.045 264.965 325.861 268.796 318.802Z" fill="#DE7373"/>
<path d="M132.056 585.687C117.541 588.142 96.9777 586.589 97.2558 582.396L97.1958 582.456C88.7344 600.976 75.5801 611.786 75.5801 611.786C75.5801 611.786 101.275 628.542 130.88 620.165C130.88 620.165 126.969 612.904 129.203 598.939C129.681 595.963 130.668 591.328 132.056 585.687Z" fill="#FFF6E3"/>
<path d="M395.642 314.248C395.642 314.248 391.092 322.209 385.223 327.2C394.446 330.185 397.601 340.22 394.81 350.39C404.764 347.172 412.585 350.926 412.585 350.926C412.585 350.926 417.984 320.881 395.642 314.248Z" fill="#FFF6E3"/>
<path d="M188.227 248.337C188.227 248.337 180.407 270.68 185.992 288.553L168.117 322.813C192.693 312.013 214.293 339.57 265.682 333.239C317.071 326.908 330.849 286.319 332.339 264.721C332.339 264.721 310.37 258.39 301.432 250.571C292.494 242.752 285.883 223.132 264.194 217.115L188.227 248.337Z" fill="#FFF6E3"/>
<path d="M228.267 332.065C233.369 306.176 236.686 267.884 229.199 252.743C228.821 251.979 229.135 251.055 229.897 250.675C230.665 250.295 231.585 250.611 231.965 251.373C239.753 267.122 236.474 306.234 231.301 332.603C230.275 332.431 229.261 332.255 228.267 332.065ZM196.429 323.091C211.132 299.911 220.557 258.148 221.009 256.118C221.195 255.286 220.671 254.462 219.839 254.278C219.029 254.099 218.183 254.616 217.999 255.448C217.889 255.946 208.035 299.609 193.311 322.231C194.337 322.497 195.375 322.783 196.429 323.091ZM271.222 332.381C265.137 299.307 247.97 243.258 247.79 242.668C247.54 241.853 246.68 241.393 245.862 241.647C245.047 241.897 244.591 242.76 244.841 243.576C245.021 244.164 262.12 299.995 268.177 332.871C269.204 332.717 270.226 332.561 271.222 332.381ZM292.436 259.93C289.373 252.169 280.413 233.158 263.415 224.25C262.654 223.858 261.726 224.15 261.332 224.902C260.936 225.657 261.23 226.591 261.984 226.985C278.067 235.408 286.629 253.621 289.567 261.063C294.146 272.663 305.644 282.426 325.457 291.466C325.887 290.518 326.291 289.572 326.677 288.627C307.88 280.006 296.64 270.58 292.436 259.93ZM282.046 275.187C275.385 254.111 265.049 238.855 253.693 233.328C252.923 232.95 252.001 233.276 251.631 234.04C251.257 234.806 251.576 235.728 252.343 236.102C262.944 241.259 272.698 255.844 279.101 276.119C283.942 291.438 294.886 308.133 303.718 318.805C304.548 318.184 305.354 317.55 306.14 316.906C297.514 306.514 286.781 290.17 282.046 275.187Z" fill="#A33B82"/>
<path d="M268.798 222.582C269.092 216.261 262.095 220.757 256.294 220.357L188.224 248.334C188.224 248.334 180.405 270.678 185.99 288.551C196.703 268.536 237.278 281.918 255.037 271.126C269.566 262.297 267.938 241.127 268.798 222.582Z" fill="#D3D5F2"/>
<path d="M231.962 251.365C231.582 250.603 230.662 250.287 229.894 250.667C229.131 251.045 228.817 251.971 229.195 252.733C231.842 258.084 233.134 266.334 233.478 275.899C234.492 275.849 235.494 275.785 236.489 275.715C236.125 265.702 234.76 257.022 231.962 251.365Z" fill="#304D96"/>
<path d="M247.787 242.659C247.536 241.844 246.676 241.384 245.858 241.638C245.044 241.888 244.588 242.751 244.838 243.567C244.922 243.839 248.627 255.941 253.183 272.114C253.824 271.805 254.444 271.477 255.036 271.117C255.356 270.923 255.626 270.691 255.93 270.485C251.465 254.669 247.871 242.929 247.787 242.659Z" fill="#304D96"/>
<path d="M253.693 233.32C252.923 232.942 252.001 233.268 251.631 234.032C251.257 234.798 251.577 235.722 252.343 236.094C257.566 238.635 262.581 243.474 267.094 250.143C267.338 248.695 267.528 247.208 267.69 245.704C263.361 239.957 258.624 235.718 253.693 233.32Z" fill="#304D96"/>
<path d="M261.983 226.977C264.322 228.201 266.482 229.649 268.506 231.224C268.542 229.968 268.578 228.715 268.616 227.467C266.968 226.299 265.246 225.203 263.413 224.243C262.653 223.85 261.727 224.143 261.331 224.895C260.935 225.649 261.227 226.583 261.983 226.977Z" fill="#304D96"/>
<path d="M215.641 276.467C218.92 265.371 220.812 256.99 221.008 256.108C221.194 255.276 220.67 254.452 219.838 254.268C219.028 254.089 218.181 254.606 217.997 255.438C217.947 255.664 215.899 264.725 212.316 276.667C213.413 276.587 214.521 276.521 215.641 276.467Z" fill="#304D96"/>
<path d="M86.0219 604.675C88.2202 606.347 91.0267 608.785 93.7412 611.998C96.0436 614.722 99.4441 616.343 103.011 616.281C112.036 616.123 118.929 613.872 123.508 611.714C126.809 610.16 130.647 612.092 131.432 615.655C132.188 619.085 133.326 622.944 134.972 625.744C137.379 629.835 138.853 635.482 139.693 640.421C140.327 644.143 137.411 647.528 133.634 647.528H66.4545C51.1759 647.528 32.7027 643.595 23.1151 640.123C20.1506 639.049 18.4062 635.996 19.0123 632.904C19.4524 630.651 21.0687 628.809 23.2471 628.085C29.2821 626.082 42.1744 622.002 54.8586 619.233C61.9578 617.683 68.4969 614.212 73.7378 609.179C75.4321 607.553 76.9924 606.133 78.2846 604.993C80.469 603.064 83.7055 602.91 86.0219 604.675Z" fill="#FF861C"/>
<path d="M133.636 647.53C137.413 647.53 140.331 644.146 139.695 640.423C139.249 637.805 138.619 634.99 137.771 632.312C121.844 632.346 91.3426 635.628 76.6941 638.779C59.3792 642.503 39.4558 640.827 28.2839 637.288C23.397 635.742 20.7206 633.838 19.2544 632.186C19.1763 632.428 19.0603 632.652 19.0122 632.904C18.4061 635.996 20.1525 639.051 23.115 640.123C32.7026 643.596 51.1758 647.528 66.4545 647.528H133.636V647.53Z" fill="#FFF6E3"/>
<path d="M403.729 347.2C404.193 345.056 404.999 342.217 406.395 339.183C407.579 336.61 407.599 333.62 406.353 331.075C403.201 324.636 399.26 320.437 396.168 317.871C393.937 316.021 394.035 312.61 396.333 310.846C398.548 309.147 400.938 307.029 402.399 304.901C404.531 301.792 408.096 298.832 411.364 296.563C413.829 294.853 417.245 295.813 418.515 298.53L441.137 346.846C446.282 357.834 449.675 372.444 450.405 380.51C450.631 383.002 449.023 385.286 446.594 385.893C444.826 386.335 442.956 385.793 441.703 384.468C438.231 380.802 430.955 372.904 424.692 364.713C421.188 360.13 416.489 356.594 411.104 354.519C409.364 353.849 407.818 353.205 406.561 352.659C404.441 351.735 403.241 349.46 403.729 347.2Z" fill="#FF861C"/>
<path d="M418.516 298.529C417.244 295.812 413.827 294.854 411.365 296.562C409.63 297.765 407.82 299.167 406.178 300.677C411.565 312.119 424.197 332.951 431.396 342.426C439.905 353.626 445.408 368.519 446.625 377.744C447.157 381.779 446.691 384.345 445.994 385.958C446.195 385.932 446.395 385.94 446.593 385.89C449.021 385.284 450.629 382.999 450.403 380.507C449.673 372.441 446.281 357.831 441.136 346.843L418.516 298.529Z" fill="#FFF6E3"/>
<path d="M159.019 108.773C161.722 108.059 164.562 108.123 167.233 108.943C178.405 112.372 214.201 124.502 230.582 143.691C250.131 166.593 250.691 199.785 250.691 199.785C250.691 199.785 256.494 205.272 263.295 208.068C266.898 209.548 269.152 213.235 268.75 217.11C266.884 235.091 258.012 247.877 241.753 260.493C222.266 275.614 189.247 274.955 187.012 256.244C171.371 250.659 169.697 238.929 169.697 238.929L153.384 226.269C141.374 216.95 134.247 202.705 133.935 187.506C133.669 174.474 133.687 159.026 134.785 148.718C136.822 129.639 143.493 112.876 159.019 108.773Z" fill="#A33B82"/>
<path d="M168.412 237.931L192.08 203.225L156.939 229.029L168.412 237.931Z" fill="#1B2236"/>
<path d="M174.819 91.6626C174.819 91.6626 179.798 79.7746 179.448 72.1213C178.844 58.935 171.047 48.1132 157.53 47.8852L153.78 47.6131C153.78 47.6131 136.663 36.0692 125.857 43.1444C131.622 43.5164 139.069 46.869 139.069 46.869C113.189 54.5023 106.486 73.2935 120.822 92.8509L135.885 97.2696L174.819 91.6626Z" fill="#8A221E"/>
<path d="M140.934 117.248L152.291 136.425C144.764 162.094 144.1 168.811 150.615 171.145C157.132 173.478 164.394 158.583 167.93 148.527C170.781 140.426 174.357 130.146 179.828 123.635C181.813 121.275 181.545 117.786 179.136 115.862C175.632 113.061 171.175 109.215 168.862 106.076L140.934 117.248Z" fill="#FA9999"/>
<path d="M171.013 109.285L171.049 108.642C170.213 107.762 169.465 106.9 168.862 106.084L140.934 117.256L147.895 129.01C153.658 129.85 159.623 128.108 164.064 124.021C168.212 120.202 170.705 114.914 171.013 109.285Z" fill="#DE7373"/>
<path d="M226.151 176.132C226.151 160.491 223.636 141.222 209.812 137.311C194.595 133.008 177.496 149.303 172.416 162.584C171.093 166.042 169.359 169.331 166.995 172.181L125.047 222.772L36.2343 209.926L31.8254 197.984C30.3912 194.097 27.1267 191.172 23.108 190.166L11.3519 187.228C8.38343 186.486 5.34886 188.178 4.4207 191.094L0.306101 204.025C-0.812091 207.543 1.23416 211.282 4.80077 212.234L10.8178 213.838C10.8178 213.838 11.934 223.892 27.0166 224.172C27.0166 224.172 74.5928 243.979 112.171 256.166C126.17 260.704 141.524 256.78 151.626 246.078C151.626 246.078 182.115 213.652 192.075 203.224C212.652 211.788 226.151 191.773 226.151 176.132Z" fill="#FA9999"/>
<path d="M7.95898 192.506L17.9907 194.842" stroke="#DE7373" stroke-width="0.9543" stroke-miterlimit="10" stroke-linecap="round" stroke-linejoin="round"/>
<path d="M5.72852 198.256L15.7601 200.59" stroke="#DE7373" stroke-width="0.9543" stroke-miterlimit="10" stroke-linecap="round" stroke-linejoin="round"/>
<path d="M4.15234 204.201L13.3398 206.342" stroke="#DE7373" stroke-width="0.9543" stroke-miterlimit="10" stroke-linecap="round" stroke-linejoin="round"/>
<path d="M206.885 196.823L209.803 189.413C210.513 187.613 208.219 186.155 206.889 187.561L192.076 203.232C192.118 203.25 192.16 203.266 192.2 203.284C197.985 205.66 204.592 202.642 206.885 196.823Z" fill="#DE7373"/>
<path d="M207.179 158.568C198.28 172.563 178.066 175.933 178.066 175.933" stroke="#DE7373" stroke-width="0.9543" stroke-miterlimit="10" stroke-linecap="round" stroke-linejoin="round"/>
<path d="M23.1074 190.17C23.1074 190.17 34.0953 191.052 36.2337 209.929L113.075 221.045" stroke="#DE7373" stroke-width="0.9543" stroke-miterlimit="10" stroke-linecap="round" stroke-linejoin="round"/>
<path d="M88.9844 205.135C94.2213 206.86 98.9701 208.44 100.674 214.677C101.006 215.893 102.007 216.819 103.255 217.001C105.243 217.289 107.009 215.665 106.837 213.663C106.517 209.938 105.413 204.283 101.817 200.211C98.582 196.548 92.579 197.602 90.4746 202.011L88.9844 205.135Z" fill="#DE7373"/>
<path d="M126.599 93.4951L130.343 107.119C131.984 113.088 136.104 118.069 141.659 120.8L142.8 121.36C150.089 124.942 158.832 123.678 164.807 118.177C168.956 114.359 171.451 109.072 171.757 103.441L172.723 85.7458C172.941 81.7671 170.466 78.1885 166.712 76.8523C163.035 75.544 158.68 72.9176 156.226 67.6387C154.178 77.1343 140.925 88.3462 132.79 87.6521C140.925 82.2312 142.65 79.1586 143.07 74.3198C140.613 78.9086 136.052 81.483 132.028 82.9153C127.731 84.4495 125.389 89.0903 126.599 93.4951Z" fill="#FA9999"/>
<path d="M126.701 93.856L123.784 89.9933C122.604 88.429 120.46 87.9589 118.732 88.8831C116.943 89.8412 116.161 91.9916 116.919 93.8739L119.59 100.513C120.538 102.869 122.776 104.452 125.313 104.562L129.697 104.75L126.701 93.856Z" fill="#FA9999"/>
<path d="M171.99 99.249L172.646 87.2449L174.617 85.0805C175.859 83.7143 177.857 83.3422 179.51 84.1684C181.406 85.1165 182.274 87.3489 181.516 89.3293L178.597 96.9526C177.909 98.7489 176.071 99.8311 174.167 99.559L171.99 99.249Z" fill="#FA9999"/>
<path d="M155.766 142.165L152.292 136.436C151.08 140.568 150.05 144.203 149.193 147.415C150.572 147.099 151.862 146.985 153.032 146.999C155.522 147.027 157.059 144.295 155.766 142.165Z" fill="#DE7373"/>
<g opacity="0.45">
<path d="M236.494 247.461C247.204 245.567 257.334 222.321 260.46 206.726C254.959 203.814 250.692 199.787 250.692 199.787C252.015 217.744 244.816 238.478 236.494 247.461Z" fill="#1B2236"/>
<path d="M188.941 244.297C177.691 244.297 172.456 240.172 172.136 239.91C171.73 239.578 171.67 238.978 172 238.572C172.332 238.162 172.932 238.1 173.34 238.432C173.452 238.522 184.746 247.281 210.202 238.272C210.699 238.096 211.245 238.356 211.421 238.854C211.597 239.352 211.337 239.896 210.839 240.072C201.899 243.235 194.646 244.297 188.941 244.297Z" fill="#1B2236"/>
<path d="M192.38 255.276C190.837 255.276 189.935 255.188 189.883 255.182C189.359 255.126 188.981 254.654 189.039 254.13C189.097 253.606 189.571 253.214 190.089 253.286C190.165 253.294 197.769 254.068 207.142 251.065C215.76 248.305 227.7 241.68 235.639 225.801C235.875 225.327 236.447 225.137 236.919 225.373C237.391 225.609 237.581 226.181 237.345 226.653C224.157 253.032 200.151 255.276 192.38 255.276Z" fill="#1B2236"/>
</g>
<path d="M127.01 94.9902L128.654 100.973" stroke="#DE7373" stroke-width="0.9543" stroke-miterlimit="10" stroke-linecap="round" stroke-linejoin="round"/>
<path d="M172.58 88.4121L172.17 95.9374" stroke="#DE7373" stroke-width="0.9543" stroke-miterlimit="10" stroke-linecap="round" stroke-linejoin="round"/>
<path d="M178.841 88.4181C178.581 85.6176 173.722 88.2741 172.492 91.2546" stroke="#DE7373" stroke-width="0.9543" stroke-miterlimit="10" stroke-linecap="round" stroke-linejoin="round"/>
<path d="M119.58 92.5785C120.876 91.0143 127.831 97.9794 127.831 97.9794" stroke="#DE7373" stroke-width="0.9543" stroke-miterlimit="10" stroke-linecap="round" stroke-linejoin="round"/>
<path d="M139.121 97.153C140.751 97.153 142.073 95.8312 142.073 94.2005C142.073 92.5699 140.751 91.248 139.121 91.248C137.49 91.248 136.168 92.5699 136.168 94.2005C136.168 95.8312 137.49 97.153 139.121 97.153Z" fill="#1B2236"/>
<path d="M159.765 95.1296C161.396 95.1296 162.718 93.8077 162.718 92.1771C162.718 90.5465 161.396 89.2246 159.765 89.2246C158.134 89.2246 156.812 90.5465 156.812 92.1771C156.812 93.8077 158.134 95.1296 159.765 95.1296Z" fill="#1B2236"/>
<path d="M155.309 86.1998L163.646 85.0996" stroke="#8A221E" stroke-width="1.8427" stroke-miterlimit="10" stroke-linecap="round" stroke-linejoin="round"/>
<path d="M133.434 87.2324H143.077" stroke="#8A221E" stroke-width="1.8427" stroke-miterlimit="10" stroke-linecap="round" stroke-linejoin="round"/>
<path d="M148.549 89.0215L148.843 92.5441C149.027 94.7405 148.303 96.9168 146.84 98.5651C145.872 99.6573 146.922 101.34 148.329 100.95L151.919 99.9514" stroke="#DE7373" stroke-width="0.9543" stroke-miterlimit="10" stroke-linecap="round" stroke-linejoin="round"/>
<path d="M145.951 104.279L154.228 102.322C155.535 102.014 156.815 102.954 156.879 104.295C157.047 107.835 156.703 113.878 152.476 114.424C148.323 114.963 145.677 110.178 144.437 107.169C143.939 105.953 144.671 104.581 145.951 104.279Z" fill="#1B2236"/>
<path d="M167.134 102.009C167.134 104.447 165.158 106.425 162.718 106.425C160.279 106.425 158.301 104.449 158.301 102.009C158.301 99.5701 160.277 97.5918 162.718 97.5918C165.156 97.5918 167.134 99.5701 167.134 102.009Z" fill="#FA8787"/>
<path d="M142.673 104.016C142.673 106.455 140.697 108.433 138.257 108.433C135.818 108.433 133.84 106.457 133.84 104.016C133.84 101.578 135.816 99.5996 138.257 99.5996C140.695 99.6016 142.673 101.578 142.673 104.016Z" fill="#FA8787"/>
</svg>
