<svg width="322" height="678" viewBox="0 0 322 678" fill="none" xmlns="http://www.w3.org/2000/svg">
<path d="M108.751 159.096C92.5989 154.915 78.3935 175.034 82.7686 191.264C59.5819 198.071 53.5131 210.135 53.5234 223.512C34.7895 238.1 26.389 273.891 55.1679 287.822C83.9468 301.755 106.784 291.248 112.386 279.914C122.112 281.806 132.791 242.933 125.256 221.06C134.09 216.938 135.143 203.97 132.024 199.65L108.751 159.096Z" fill="#2C2D66"/>
<path d="M132.028 199.654L108.753 159.1C108.714 159.09 108.675 159.079 108.636 159.069C102.367 157.492 95.7892 161.241 93.887 167.419C91.0316 176.694 95.0651 184.635 99.7103 188.994C114.22 202.608 124.29 197.957 133.417 203.514C133.169 201.947 132.703 200.591 132.028 199.654Z" fill="#1B2236"/>
<path d="M173.443 161.099C182.536 151.62 187.58 126.059 165.2 117.799C142.817 109.54 132.631 124.263 129.888 133.612C109.573 139.225 100.745 161.821 106.316 178.09C111.888 194.357 132.391 200.651 135.967 207.707L173.443 161.099Z" fill="#2C2D66"/>
<path d="M185.75 211.049C185.75 211.049 208.74 206.4 224.971 218.486C232.236 223.898 240.659 227.357 249.389 229.263C270.072 233.778 303.478 242.004 315.402 250.3L283.805 274.716L219.262 268.267L185.75 211.049Z" fill="#FA9999"/>
<path d="M183.787 211.352C183.787 211.352 186.098 210.656 190.351 210.174C194.446 209.707 198.573 210.513 202.227 212.505C207.569 215.42 215.487 220.452 219.993 226.68C229.694 231.886 230.723 242.362 230.723 242.362L183.787 211.352Z" fill="#A33B82"/>
<path d="M139.211 465.127C139.211 470.105 151.676 466.086 154.552 465.127C157.427 464.168 148.599 445.951 148.599 445.951C148.599 445.951 139.211 456.882 139.211 465.127Z" fill="#1B2236"/>
<path d="M123.539 371.426C116.135 376.237 135.202 386.816 152.441 388.898L159.682 354.279C159.682 354.279 134.239 364.472 123.539 371.426Z" fill="#1B2236"/>
<path d="M62.8287 643.286C63.4423 651.694 54.2666 655.695 44.1561 654.206L25.6186 666.219L25.1257 668.348C22.9351 677.822 11.4501 681.001 5.21978 673.756C4.22571 672.6 3.33388 671.316 2.60572 669.892C-2.67962 659.575 0.664609 647.88 7.4615 639.827C14.2584 631.774 19.9712 626.55 22.3521 616.62C24.7309 606.689 38.8156 595.752 46.0257 600.119C53.2337 604.484 56.8909 613.263 56.8909 613.263C56.8909 613.263 62.7019 611.813 63.8637 617.601C65.0214 623.386 62.8287 643.286 62.8287 643.286Z" fill="#FF861C"/>
<path d="M51.665 605.021C50.1228 603.226 48.241 601.462 46.0217 600.119C38.8137 595.754 24.7291 606.688 22.3482 616.619C19.9694 626.549 14.2545 631.775 7.45764 639.826C0.660748 647.879 -2.68354 659.574 2.60179 669.892C3.32996 671.315 4.22179 672.6 5.21586 673.755C6.98104 675.809 9.17169 676.997 11.4503 677.472C2.01276 668.384 4.95812 655.633 10.2475 647.155C15.5513 638.654 25.0195 638.99 25.5758 626.958C26.0647 616.39 40.041 603.101 51.665 605.021Z" fill="#FFF6E3"/>
<path d="M252.253 353.506C252.253 353.506 263.684 385.76 258.753 427.378C255.476 455.028 240.536 517.938 229.248 545.887C223.24 560.757 226.069 586.374 195.423 603.375C164.775 620.379 71.283 643.504 60.5855 647.323C49.888 651.139 42.6431 644.619 42.1072 637.832C41.5713 631.045 46.1715 626.492 50.3216 626.185C54.4718 625.881 59.7755 617.378 59.7755 617.378C59.7755 617.378 80.0966 610.151 89.1455 602.641C98.1944 595.13 140.297 553.438 170.804 561.017L177.812 361.497L252.253 353.506Z" fill="#DE7373"/>
<path d="M156.739 560.631C145.649 562.349 134 568.24 123.473 575.159C134.442 582.766 169.545 605.45 195.422 603.38C197.629 602.155 199.646 600.88 201.521 599.573C201.648 591.844 177.232 574.126 156.739 560.631Z" fill="#1B2236"/>
<path d="M177.81 361.497L174.699 450.059C202.754 471.714 232.877 470.421 252.012 464.837C255.196 450.129 257.645 436.732 258.753 427.378C263.685 385.76 252.253 353.506 252.253 353.506L177.81 361.497Z" fill="#FF861C"/>
<path d="M252.012 464.84C252.677 461.769 253.3 458.775 253.896 455.842C246.688 458.521 234.912 461.733 225.595 460.241C220.533 459.431 219.811 463.498 220.47 468.045C232.427 469.008 243.347 467.368 252.012 464.84Z" fill="#A33B82"/>
<path d="M232.973 453.835C235.47 487.12 234.846 539.386 233.234 566.439C231.623 593.491 203.825 618.813 165.64 592.334C133.048 569.732 82.3936 538.942 68.2537 530.407C65.6335 528.826 63.7906 526.154 63.2097 523.049C62.3036 518.214 61.8025 511.1 65.4249 507.095C68.8162 503.348 73.0788 506.846 76.063 510.446C78.7793 513.724 82.8538 515.4 86.9794 514.976L94.0954 514.246C94.0954 514.246 101.297 520.388 116.703 520.458C132.109 520.525 154.674 516.081 169.487 528.623C169.487 528.623 144.995 475.115 141.731 445.684C138.468 416.25 181.567 407.474 206.517 426.619C231.463 445.766 232.973 453.835 232.973 453.835Z" fill="#FA9999"/>
<path d="M206.51 426.619C181.56 407.474 138.462 416.25 141.724 445.684C142.426 452.018 144.115 459.47 146.328 467.261C148.408 464.487 151.045 462.035 154.093 459.881C158.081 457.062 160.45 452.477 160.736 447.602L161.219 439.378L166.758 444.549C170.932 448.445 176.698 450.12 182.319 449.106C202.421 445.475 224.14 447.635 232.968 453.833C232.968 453.833 231.46 445.766 206.51 426.619Z" fill="#1B2236"/>
<path d="M94.0934 514.249C98.0513 514.085 97.9265 512.099 95.607 509.847C99.6119 504.594 105.76 493.864 101.913 488.38C98.0636 482.897 87.4806 479.469 76.417 478.849C65.3534 478.229 60.6264 485.368 50.8821 483.653C41.1378 481.939 29.4033 484.285 21.6614 498.587C13.9195 512.888 27.0511 518.059 37.5747 512.698C37.5747 512.698 41.7473 516.787 49.704 519.182C53.7355 530.782 65.2675 541.138 75.6745 532.177C86.0815 523.216 94.0934 514.249 94.0934 514.249Z" fill="#FF861C"/>
<path d="M76.4148 478.849C65.3512 478.229 60.6243 485.368 50.8799 483.653C41.1356 481.939 29.4011 484.285 21.6593 498.587C17.683 505.932 19.2191 510.862 23.0726 513.199C21.6981 506.623 29.5934 498.405 34.2774 495.987C39.9064 493.083 42.8313 489.851 52.727 491.761C62.6206 493.674 65.2346 490.941 70.252 488.141C78.8284 483.357 95.2756 487.409 101.44 499.827C103.181 495.599 103.934 491.264 101.911 488.378C98.0634 482.897 87.4785 479.469 76.4148 478.849Z" fill="#FFF6E3"/>
<path d="M161.221 523.586C147.114 517.509 129.458 520.518 116.701 520.463C101.295 520.395 94.093 514.251 94.093 514.251L86.977 514.981C82.8514 515.404 78.7769 513.729 76.0606 510.45C73.0764 506.849 68.8158 503.353 65.4225 507.1C61.798 511.103 62.2991 518.217 63.2073 523.054C63.7902 526.159 65.6331 528.831 68.2513 530.412C78.871 536.822 110.086 555.783 138.777 574.404C121.471 560.78 141.395 515.257 161.221 523.586Z" fill="#FFF6E3"/>
<path d="M233.232 566.442C233.924 554.832 234.433 538.575 234.593 521.171C222.944 529.056 197.446 539.485 163.23 514.186C166.863 522.899 169.483 528.628 169.483 528.628L171.97 534.126C156.18 546.892 154.732 572.453 163.239 590.682C164.046 591.236 164.852 591.79 165.638 592.337C203.824 618.818 231.621 593.494 233.232 566.442Z" fill="#FFF6E3"/>
<path d="M171.971 534.123C170.261 535.506 168.752 537.062 167.371 538.721C174.81 541.961 177.312 554.403 176.32 557.746C175.326 561.094 179.815 563.17 181.668 561.511C183.522 559.852 183.941 557.214 181.503 553.694C179.065 550.171 174.188 539.633 171.971 534.123Z" fill="#D3D5F2"/>
<path d="M136.529 625.48C111.51 621.833 108.419 586.252 122.84 575.568C106.965 586.106 93.7578 598.81 89.1455 602.639C80.0966 610.15 59.7755 617.377 59.7755 617.377C59.7755 617.377 54.4717 625.877 50.3216 626.184C46.1714 626.489 41.5713 631.042 42.1072 637.831C42.6431 644.617 49.8879 651.138 60.5854 647.321C66.9262 645.057 102.347 636.012 136.529 625.48V625.48Z" fill="#FFF6E3"/>
<path d="M224.055 403.882C222.063 399.462 221.181 394.612 221.267 389.726C221.512 375.876 217.481 363.622 217.481 363.622L148.776 355.326C134.024 374.942 111.437 417.437 136.908 454.392C140.389 457.771 139.209 465.13 139.209 465.13C140.688 461.694 145.435 456.738 149.995 453.559C153.94 450.81 156.581 446.421 157.231 441.505C158.013 435.621 158.833 430.19 158.833 430.19L167.73 438.818C170.76 441.757 174.906 443.136 178.984 442.452C196.284 439.552 216.405 441.702 232.971 453.841C232.971 453.841 235.644 429.591 224.055 403.882Z" fill="#FF861C"/>
<path d="M119.453 228.253C119.453 228.253 111.347 225.661 105.716 228.566C105.716 228.566 79.6232 205.804 57.1401 193.804L104.174 98.0625C104.174 98.0625 116.297 92.1778 120.836 85.1969C123.462 81.1572 126.05 70.6908 127.766 62.5869C128.322 59.9606 124.954 58.4982 123.579 60.7706C121.421 64.3398 119.325 68.5922 118.443 72.7178C115.811 68.6352 113.945 63.0328 113.945 63.0328C113.945 63.0328 113.724 57.2607 113.223 52.1635C113.023 50.1222 113.63 48.0952 114.898 46.5325C121.274 38.6699 129.656 24.5771 127.57 22.5521C125.248 20.3001 121.98 25.1028 121.98 25.1028C121.98 25.1028 118.846 19.347 112.937 26.3402C108.081 23.7814 104.305 30.4372 101.02 36.553C98.218 41.7708 96.2872 45.3032 96.2872 45.3032C96.2872 45.3032 95.2788 38.9072 98.173 34.4175C101.065 29.9279 97.1258 28.3754 97.1258 28.3754L93.1209 36.6511C90.7973 41.4538 89.5926 46.7636 89.6069 52.1451L89.6601 71.9181C89.6703 75.3994 88.5412 78.7804 86.459 81.4967C73.802 98.0134 27.3487 158.926 11.8138 183.444C8.99113 187.897 9.17727 193.72 12.3006 197.946C22.5174 211.769 48.3632 243.741 85.604 269.053C91.8527 273.301 97.5185 278.482 102.018 284.698C109.247 294.688 116.42 299.224 116.42 299.224C116.42 299.224 131.073 303.023 139.498 285.639C147.924 268.255 137.39 231.495 119.453 228.253Z" fill="#FA9999"/>
<path d="M113.916 266.029C113.916 266.029 127.111 275.152 141.858 278.545" stroke="#DE7373" stroke-width="1.0358" stroke-miterlimit="10" stroke-linecap="round" stroke-linejoin="round"/>
<path d="M139.503 285.642C142.289 279.892 142.99 272.023 142.047 263.948C135.936 250.921 127.762 235.224 122.862 232.85C134.529 248.235 130.427 284.932 110.391 294.292C113.921 297.636 116.425 299.229 116.425 299.229C116.425 299.229 131.078 303.028 139.503 285.642Z" fill="#1B2236"/>
<path d="M172.251 212.31L183.345 211.384C190.75 210.766 198.123 212.901 204.172 217.414L227.26 234.642C239.5 243.775 244.804 260.067 240.437 275.121L240.179 276.013C238.718 281.05 239.14 286.465 241.279 291.23C244.321 298.003 248.35 308.786 249.001 319.516C249.177 322.407 250.015 325.194 251.508 327.633C253.807 331.388 254.546 334.949 254.74 337.424C254.902 339.475 255.632 341.388 256.681 343.129C257.585 344.626 258.158 346.467 258.487 348.485C260.531 361.014 252.042 372.805 240.113 375.182L215.29 380.126C199.665 383.237 183.615 377.653 172.879 365.372L169.203 361.167C169.203 361.167 157.982 379.214 137.06 371.803C126.319 367.999 123.544 371.429 123.544 371.429C123.544 371.429 148.444 358.948 151.302 346.458C155.931 326.223 130.201 314.153 116.432 299.226C131.903 301.811 143.916 258.091 119.461 228.248L172.251 212.31Z" fill="#FF861C"/>
<path d="M247.851 311.105C246.315 303.539 243.629 296.519 241.412 291.545H201.915L193.449 308.978C193.449 308.978 202.723 314.034 211.359 308.276C214.316 306.305 217.869 305.431 221.414 305.705C228.505 306.258 239.804 307.644 247.851 311.105Z" fill="#1B2236"/>
<path d="M123.537 371.425C123.537 371.425 124.304 371.041 125.564 370.35C124.067 370.769 123.537 371.425 123.537 371.425Z" fill="#A33B82"/>
<path d="M248.158 364.966C241.498 369.45 227.262 372.749 209.154 373.88C195.104 374.756 184.35 366.805 176.935 355.39C174.252 351.258 168.62 351.117 165.55 354.94C162.161 359.159 157.802 362.659 152.93 364.224C147.142 366.081 143.347 364.144 136.225 363.708C131.975 366.721 127.9 369.072 125.561 370.354C127.485 369.814 131.007 369.665 137.05 371.804C157.972 379.215 169.193 361.168 169.193 361.168L172.869 365.373C183.605 377.656 199.656 383.24 215.28 380.127L240.106 375.183C251.676 372.878 259.979 361.71 258.604 349.607C256.634 356.873 253.53 361.35 248.158 364.966Z" fill="#A33B82"/>
<path d="M297.814 247.156L207.509 281.642L194.981 274.557C189.963 271.72 183.927 271.689 178.883 274.475L166.605 281.258C162.876 283.317 162.635 289.006 166.329 291.131C166.374 291.155 166.419 291.182 166.464 291.206C166.893 296.635 171.368 297.983 171.368 297.983C171.368 297.983 170.931 303.235 176.928 304.765C179.014 311.47 184.799 315.199 193.449 308.985C202.001 312.976 212.444 302.137 212.444 302.137L291.61 299.49C310.814 298.848 325.445 280.239 321.223 260.621C321.094 260.02 320.947 259.425 320.784 258.836C317.975 248.744 307.249 243.555 297.814 247.156Z" fill="#FA9999"/>
<path d="M168.975 289.206C168.975 289.206 175.843 283.505 180.572 282.006" stroke="#DE7373" stroke-width="1.0358" stroke-miterlimit="10" stroke-linecap="round" stroke-linejoin="round"/>
<path d="M174.32 295.143C174.32 295.143 181.187 289.443 185.918 287.943" stroke="#DE7373" stroke-width="1.0358" stroke-miterlimit="10" stroke-linecap="round" stroke-linejoin="round"/>
<path d="M179.479 302.846C179.479 302.846 186.345 297.146 191.076 295.646" stroke="#DE7373" stroke-width="1.0358" stroke-miterlimit="10" stroke-linecap="round" stroke-linejoin="round"/>
<path d="M190.831 302.482C190.831 302.482 189.279 306.665 185.572 308.234" stroke="#DE7373" stroke-width="1.0358" stroke-miterlimit="10" stroke-linecap="round" stroke-linejoin="round"/>
<path d="M191.625 307.491L188.768 305.834" stroke="#DE7373" stroke-width="1.0358" stroke-miterlimit="10" stroke-linecap="round" stroke-linejoin="round"/>
<path d="M152 306.076C152 306.076 173.775 328.222 219.19 338.013" stroke="#B55F14" stroke-width="0.9402" stroke-miterlimit="10" stroke-linecap="round" stroke-linejoin="round"/>
<path d="M243.859 327.311C243.859 327.311 243.17 359.923 210.707 346.877" stroke="#B55F14" stroke-width="0.9402" stroke-miterlimit="10" stroke-linecap="round" stroke-linejoin="round"/>
<path d="M116.422 299.225C117.809 300.728 119.318 302.201 120.903 303.655C143.632 295.072 143.515 252.059 124.516 226.717L119.451 228.247C143.908 258.087 131.895 301.81 116.422 299.225Z" fill="#A33B82"/>
<path d="M172.247 212.308L136.766 223.021C140.357 225.828 141.176 229.763 148.261 231.794C157.6 234.47 176.455 237.822 181.887 239.822C183.532 229.851 185.086 217.513 182.89 211.42L172.247 212.308Z" fill="#A33B82"/>
<path d="M98.2402 51.7324C99.1464 57.4882 111.384 62.9985 105.573 78.4312" stroke="#DE7373" stroke-width="1.0358" stroke-miterlimit="10" stroke-linecap="round" stroke-linejoin="round"/>
<path d="M112.441 28.9746C112.441 28.9746 107.051 36.2563 105.059 40.1835C103.067 44.1106 102.048 48.6924 103.061 52.3107" stroke="#DE7373" stroke-width="1.0358" stroke-miterlimit="10" stroke-linecap="round" stroke-linejoin="round"/>
<path d="M120.417 27.6543C120.417 27.6543 113.669 38.2659 110.303 42.8353C106.936 47.4027 108.525 51.6285 108.525 51.6285" stroke="#DE7373" stroke-width="1.0358" stroke-miterlimit="10" stroke-linecap="round" stroke-linejoin="round"/>
<path d="M78.3567 206.229C72.6419 202.294 66.1906 198.671 60.2037 195.442C58.5244 194.535 57.9292 192.42 58.8742 190.764L70.7151 169.997C71.0301 169.442 70.8501 168.739 70.306 168.405L37.0109 148.029C36.0618 147.448 34.8161 147.7 34.1677 148.604C24.5747 161.981 17.0088 175.253 11.8216 183.443C8.99897 187.896 9.18505 193.719 12.3084 197.945C18.7392 206.644 30.9175 223.21 48.6512 240.13C49.2996 240.749 50.3469 240.704 50.936 240.027L78.6022 208.281C79.1442 207.663 79.0379 206.699 78.3567 206.229Z" fill="#FFF6E3"/>
<path d="M238.538 379.693C238.538 379.693 235.442 384.876 231.345 390.301C226.814 396.298 225.517 404.099 227.898 411.229C230.408 418.742 232.944 429.413 232.944 441.859" stroke="#B55F14" stroke-width="0.9402" stroke-miterlimit="10" stroke-linecap="round" stroke-linejoin="round"/>
<path d="M184.176 385.404C184.176 385.404 202.799 390.469 215.528 402.708" stroke="#B55F14" stroke-width="0.9402" stroke-miterlimit="10" stroke-linecap="round" stroke-linejoin="round"/>
<path d="M194.533 402.709C194.533 402.709 209.491 403.012 223.009 410.913" stroke="#B55F14" stroke-width="0.9402" stroke-miterlimit="10" stroke-linecap="round" stroke-linejoin="round"/>
<path d="M232.972 453.835C232.972 453.835 233.261 451.195 233.236 446.75C223.328 435.41 198.268 432.634 182.123 434.659C177.572 435.23 172.972 433.995 169.44 431.068C165.564 427.858 162.318 425.39 159.902 423.635C157.716 422.045 154.629 423.309 154.179 425.977L152.117 438.192C151.451 442.144 149.374 445.701 146.267 448.233C143.897 450.164 140.927 452.786 138.045 455.887C140.103 459.56 139.213 465.126 139.213 465.126C140.692 461.69 145.439 456.734 149.998 453.555C153.944 450.806 156.584 446.416 157.235 441.501C158.016 435.617 158.836 430.186 158.836 430.186L167.734 438.814C170.763 441.753 174.909 443.132 178.988 442.448C196.284 439.546 216.405 441.694 232.972 453.835Z" fill="#A33B82"/>
<path d="M243.859 267.762C243.859 267.762 274.399 251.681 296.643 253.049" stroke="#DE7373" stroke-width="1.0358" stroke-miterlimit="10" stroke-linecap="round" stroke-linejoin="round"/>
<path d="M136.473 144.613C139.455 153.103 141.852 167.525 130.193 179.004C130.193 179.004 136.835 188.894 135.106 198.223C134.456 201.733 134.777 205.363 136.379 208.521L142.717 221.033C144.221 224.001 146.878 226.141 150.003 226.904L177.858 233.694L179.357 220.092C179.711 216.877 178.993 213.631 177.32 210.906L168.144 195.952C176.039 193.514 179.97 184.674 180.56 175.22C180.905 169.667 178.909 164.226 175.192 160.244L175.129 160.176C173.558 158.493 172.423 156.439 171.684 154.218C170.938 151.972 170.089 150.055 169.195 148.425C166.125 142.825 159.938 139.8 153.906 141.15C150.572 141.896 145.871 142.228 140.38 140.575C137.9 139.835 135.614 142.168 136.473 144.613Z" fill="#FA9999"/>
<path d="M160.733 169.21C160.733 172.157 158.344 174.546 155.397 174.546C152.45 174.546 150.061 172.157 150.061 169.21C150.061 166.262 152.45 163.873 155.397 163.873C158.344 163.875 160.733 166.264 160.733 169.21Z" fill="#FA8787"/>
<path d="M168.145 195.951C162.549 198.393 154.351 199.077 147.64 196.458C145.253 195.526 143.308 198.717 145.208 200.494C152.144 206.98 163.193 207.442 173.156 204.116L168.145 195.951Z" fill="#DE7373"/>
<path d="M153.209 156.646C153.035 158.231 151.665 159.366 150.151 159.184C148.638 159.002 147.552 157.568 147.728 155.985C147.902 154.4 149.272 153.265 150.786 153.447C152.299 153.629 153.385 155.061 153.209 156.646Z" fill="#1B2236"/>
<path d="M169.467 154.982C169.293 156.567 167.923 157.702 166.409 157.52C164.896 157.338 163.81 155.904 163.985 154.321C164.159 152.736 165.53 151.601 167.043 151.783C168.557 151.965 169.641 153.397 169.467 154.982Z" fill="#1B2236"/>
<path d="M159.371 150.85C159.371 150.85 159.34 156.577 162.429 159.23C163.793 160.402 165.81 160.729 167.751 160.696C169.547 160.666 170.482 162.905 169.203 164.225L167.315 166.172" stroke="#DE7373" stroke-width="1.0358" stroke-miterlimit="10" stroke-linecap="round" stroke-linejoin="round"/>
<path d="M143.969 151.898C144.76 149.388 148.272 147.034 151.807 149.163" stroke="#2C2D66" stroke-width="2" stroke-miterlimit="10" stroke-linecap="round" stroke-linejoin="round"/>
<path d="M163.658 148.897C163.658 148.897 165.924 146.357 169.199 148.429" stroke="#2C2D66" stroke-width="2" stroke-miterlimit="10" stroke-linecap="round" stroke-linejoin="round"/>
<path d="M172.438 170.201C169.659 172.106 162.53 173.961 158.004 169.201" stroke="#DE7373" stroke-width="1.0358" stroke-miterlimit="10" stroke-linecap="round" stroke-linejoin="round"/>
<path d="M132.514 183.294C133.158 184.695 133.821 186.356 134.35 188.188C137.76 186.441 138.738 181.115 138.738 181.115L132.514 183.294Z" fill="#DE7373"/>
<path d="M137.958 182.558C135.374 186.201 129.794 186.447 125.495 183.106C121.196 179.766 119.803 174.105 122.386 170.462C124.969 166.819 130.549 166.573 134.849 169.914C139.148 173.254 140.541 178.915 137.958 182.558Z" fill="#FA9999"/>
<path d="M125.884 178.452C123.871 175.862 124.984 172.377 127.226 171.319C128.569 170.685 130.21 171.184 131.603 171.919C133.213 172.768 134.129 174.606 133.722 176.38C133.362 177.946 133.54 179.679 136.238 179.411" stroke="#DE7373" stroke-width="1.0358" stroke-miterlimit="10" stroke-linecap="round" stroke-linejoin="round"/>
<path d="M129.719 176.504L131.605 171.912" stroke="#DE7373" stroke-width="1.0358" stroke-miterlimit="10" stroke-linecap="round" stroke-linejoin="round"/>
<path d="M240.489 90.192C262.456 84.3137 275.498 61.7409 269.62 39.7743C263.741 17.8076 241.169 4.76538 219.202 10.6436C197.235 16.5219 184.193 39.0946 190.071 61.0613C195.949 83.0279 218.522 96.0702 240.489 90.192Z" fill="#FFF6E3"/>
<path d="M270.502 56.9791C261.631 64.3364 250.849 70.7181 237.74 75.2037L230.88 77.5518C230.36 74.3139 230.043 70.9615 229.968 67.4987L234.566 65.9257C249.679 60.7529 261.391 52.7676 270.479 43.6942C270.254 42.3483 269.964 41.0024 269.599 39.6586C269.522 39.3763 269.432 39.1002 269.35 38.82C260.418 48.2779 248.665 56.66 233.208 61.9494L230.007 63.0458C230.142 59.5522 230.534 55.9503 231.205 52.2501C241.148 48.685 249.364 43.6553 256.147 37.8259C256.355 37.7113 256.554 37.5682 256.72 37.3779C256.754 37.337 256.779 37.292 256.81 37.2491C259.812 34.6105 262.512 31.8083 264.969 28.9181C264.208 27.6745 263.39 26.478 262.51 25.3346C260.27 28.0406 257.81 30.6711 255.081 33.1583L249.156 27.9875C240.054 20.0452 230.612 14.2873 221.187 10.1699C220.489 10.3213 219.792 10.489 219.094 10.6792C217.615 11.0801 216.18 11.5628 214.785 12.109C225.411 16.1159 236.133 22.199 246.394 31.1538L251.864 35.9277C249.317 37.9957 246.572 39.947 243.608 41.7408L239.943 38.5438C228.164 28.2656 215.683 22.1458 203.531 18.7668C202.248 19.8345 201.033 20.9697 199.898 22.1765C212.301 25.2466 225.136 31.2008 237.182 41.7101L239.732 43.9355C236.638 45.5657 233.322 47.0262 229.782 48.2943C221.731 41.4749 213.279 36.8768 204.848 33.9171C204.637 33.7862 204.402 33.6839 204.144 33.6328C204.091 33.6226 204.04 33.6246 203.987 33.6185C200.518 32.4444 197.055 31.5506 193.629 30.8817C192.942 32.156 192.318 33.4651 191.768 34.8069C194.922 35.3796 198.112 36.1548 201.309 37.1714L199.796 44.8785C197.564 56.2468 197.221 66.8871 198.209 76.7562C199.704 78.55 201.336 80.2088 203.095 81.7122C201.389 70.7386 201.361 58.7075 203.917 45.6884L205.314 38.5725C208.378 39.7424 211.44 41.1415 214.478 42.8106L213.541 47.5784C210.559 62.7635 211.451 76.5107 214.523 88.6339C216.085 89.2618 217.691 89.7895 219.327 90.2231C215.832 77.9977 214.603 63.9826 217.665 48.3884L218.317 45.0687C221.277 46.9321 224.2 49.0736 227.069 51.5056C225.188 61.8881 225.433 71.5056 227.084 80.2865C227.075 80.534 227.104 80.7877 227.19 81.0372C227.208 81.0883 227.235 81.1333 227.255 81.1824C227.98 84.8028 228.947 88.2739 230.094 91.5997C231.543 91.5895 232.999 91.5097 234.461 91.342C233.353 88.2698 232.406 85.0626 231.671 81.7224L239.102 79.18C250.692 75.2139 260.512 69.8222 268.865 63.6083C269.591 61.4606 270.135 59.2413 270.502 56.9791Z" fill="#D3D5F2"/>
</svg>
