<svg width="506" height="618" viewBox="0 0 506 618" fill="none" xmlns="http://www.w3.org/2000/svg">
<path d="M335.382 617.56C429.588 617.56 505.956 612.876 505.956 607.099C505.956 601.322 429.588 596.639 335.382 596.639C241.177 596.639 164.809 601.322 164.809 607.099C164.809 612.876 241.177 617.56 335.382 617.56Z" fill="#FF95FB"/>
<path d="M328.905 328.907C389.455 268.357 389.455 170.186 328.905 109.636C268.355 49.0867 170.185 49.0867 109.635 109.636C49.0853 170.186 49.0853 268.357 109.635 328.907C170.185 389.456 268.355 389.456 328.905 328.907Z" fill="#FF95FB"/>
<path d="M355.262 422.968C353.639 453.041 362.586 466.956 369.899 490.722C377.212 514.488 382.422 522.801 383.363 545.836C384.304 568.871 378.088 587.152 386.132 591.539C394.176 595.927 408.51 595.618 425.987 595.618C443.463 595.618 478.637 595.618 487.047 595.618C495.456 595.618 500.576 583.798 489.241 579.076C477.906 574.354 462.184 569.967 449.386 560.46C436.589 550.954 428.218 542.426 426.005 528.591C423.792 514.755 417.367 449.988 415.017 428.833C411.727 399.216 411.711 394.279 395.575 372.724C384.307 357.671 305.968 253.818 305.968 253.818H206.428C206.428 253.818 203.912 291.191 224.396 312.752C244.878 334.312 355.262 422.968 355.262 422.968Z" fill="#AD6163"/>
<path d="M356.145 416.248C355.206 421.057 354.654 425.362 354.654 431.769" stroke="#303030" stroke-width="1.5" stroke-miterlimit="10" stroke-linecap="round" stroke-linejoin="round"/>
<path d="M371.826 496.795C369.542 498.842 370.759 501.883 373.395 508.78C376.033 515.677 380.495 527.848 380.9 537.178C381.306 546.51 379.049 567.437 379.682 577.95C380.316 588.462 380.9 593.613 392.665 595.62C404.431 597.626 436.278 597.221 451.288 597.221C466.299 597.221 477.456 597.221 485.163 597.221C492.87 597.221 505.167 584.089 488.815 577.342C473.46 571.007 455.791 566.027 439.725 549.348C430.781 540.063 427.641 529.468 426.888 522.775C426.134 516.081 425.394 504.755 424.988 499.278C424.582 493.801 425.28 490.708 421.549 490.717L421.983 494.749C421.983 494.749 416.803 499.448 397.33 501.476C377.857 503.505 373.053 500.508 373.053 500.508L371.826 496.795Z" fill="white" stroke="#303030" stroke-width="1.5" stroke-miterlimit="10" stroke-linecap="round" stroke-linejoin="round"/>
<path d="M377.225 581.879C377.432 588.876 383.049 590.596 389.92 591.751C396.88 592.92 413.498 591.059 423.839 594.09C434.179 597.121 451.052 604.746 468.745 601.822C488.214 598.604 497.135 594.932 497.02 586.668C496.968 582.88 495.734 578.066 488.84 575.284C469.529 567.491 465.29 565.485 451.916 557.761C444.018 553.201 438.49 546.112 435.587 537.522C434.026 532.903 433.162 530.503 431.735 527.21C429.535 522.14 422.707 521.149 417.915 522.223C413.601 523.191 409.778 525.674 406.347 528.46C402.899 531.259 399.736 535.731 398.506 538.038C393.201 531.424 383.057 524.126 377.954 528.993C377.026 529.879 377.204 533.115 377.204 536.508C377.204 549.803 376.999 574.231 377.225 581.879Z" fill="#303030"/>
<path d="M494.704 604.764C484.388 608.686 476.705 609.534 451.201 609.534C425.698 609.534 427.777 609.296 422.863 605.056C421.083 603.521 419.951 601.721 418.146 601.518C414.762 601.138 415.826 609.534 408.39 609.534C400.954 609.534 389.387 609.534 380.408 609.534C375.692 609.534 375.193 595.516 375.585 589.618C375.911 584.686 376.45 581.872 378.49 580.703C381.133 579.327 385.415 580.065 388.15 580.275C391.47 580.53 394.773 580.895 398.05 581.371C401.299 581.843 404.595 582.448 407.331 584.097C409.392 585.339 410.817 587.116 412.323 588.936C413.666 590.561 415.419 592.367 417.828 592.13C419.567 591.959 421.103 590.73 422.785 590.123C425.131 589.276 427.656 589.694 429.798 590.628C431.938 591.562 433.794 592.976 435.762 594.201C447.824 601.71 463.727 600.649 476.983 597.35C477.951 597.11 478.927 596.844 479.79 596.347C481.448 595.393 482.335 593.714 483.579 592.357C484.809 591.014 486.26 590.142 487.983 589.563C490.816 588.611 497.015 585.383 498.024 590.082C498.411 591.889 498.67 593.657 498.678 595.533C498.645 598.962 499.215 603.049 494.704 604.764Z" fill="#F55571"/>
<path d="M395.661 588.046C392.912 587.437 383.281 586.674 382.466 589.824C381.499 593.573 381.875 599.076 383.238 600.858C384.288 602.231 385.776 602.96 387.505 603.283C391.433 604.015 398.508 603.768 402.59 603.378C403.731 603.27 405.114 603.103 405.748 602.093C406.748 600.504 406.261 593.827 405.964 593.149C404.203 589.117 398.007 588.567 395.661 588.046Z" stroke="#303030" stroke-width="1.5" stroke-miterlimit="10" stroke-linecap="round" stroke-linejoin="round"/>
<path d="M164.819 337.338C157.103 331.673 150.879 328.661 141.042 331.873C131.206 335.086 127.591 344.408 126.789 349.785C125.986 355.161 125.986 371.422 127.792 376.641C129.599 381.86 134.777 384.872 132.389 387.483C130 390.092 129.398 392.702 128.997 397.52C128.595 402.339 123.977 419.001 129.198 435.865C134.417 452.727 144.597 459.728 155.568 461.147L163.527 337.496" fill="#F55571"/>
<path d="M182.316 348.465C183.24 349.019 184.134 349.643 184.981 350.399C190.166 355.032 192.348 362.237 192.753 369.178C193.084 374.881 192.357 380.64 190.648 386.089C189.078 391.094 186.883 396.642 183.105 400.396C178.305 405.169 178.104 409.705 177.922 415.879C177.741 422.052 178.359 430.783 175.819 445.331C173.276 459.879 164.279 463.322 155.565 461.144C146.851 458.965 136.763 445.912 134.094 428.891C131.476 412.201 135.966 399.528 136.586 388.322C137.366 374.239 133.705 371.091 134.196 360.561C134.686 350.03 137.248 340.872 148.485 336.595C157.992 332.977 165.187 336.414 169.908 341.679C171.572 343.537 174.518 344.359 176.654 345.517C178.572 346.557 180.502 347.377 182.316 348.465Z" fill="#303030"/>
<path d="M245.176 451.63C225.872 455.601 208.485 436.692 192.829 418.706C178.33 402.046 168.09 391.057 164.814 386.344C161.538 381.632 159.716 367.827 166.292 357.363C169.647 352.025 176.683 350.37 182.264 353.301C188.361 356.503 199.447 361.968 212.172 366.568C230.243 373.101 277.246 405.587 245.176 451.63Z" fill="#AD6163"/>
<path d="M187.626 356.036C182.402 354.345 175.706 362.576 173.892 371.086C172.078 379.597 173.23 394.815 176.087 399.712L179.451 403.514C179.451 403.514 177.11 406.643 173.128 402.587C167.667 397.026 161.056 389.224 158.825 386.294C156.592 383.365 155.337 370.111 160.638 359.09C165.939 348.069 174.437 349.047 178.775 349.779C182.838 350.465 192.247 351.544 190.743 357.534L187.626 356.036Z" fill="white" stroke="#303030" stroke-width="1.5" stroke-miterlimit="10" stroke-linecap="round" stroke-linejoin="round"/>
<path d="M196.199 253.818C185.986 300.849 190.196 318.007 201.101 383.781C206.223 414.675 213.765 452.005 239.094 452.005C264.422 452.005 271.739 435.929 275.452 390.318C280.309 330.673 275.452 253.82 275.452 253.82L196.199 253.818Z" fill="#AD6163"/>
<path d="M196.92 360.396C201.101 383.774 201.054 393.432 210.527 416.205" stroke="#303030" stroke-width="1.5" stroke-miterlimit="10" stroke-linecap="round" stroke-linejoin="round"/>
<path d="M192.925 248.857C190.369 270.629 185.128 300.659 188.056 330.546C191.251 363.157 193.638 380.726 193.638 380.726C193.638 380.726 202.661 391.23 219.739 395.049C245.362 400.779 266.861 394.279 277.609 386.825L278.598 363.765C278.598 363.765 288.992 385.417 294.271 392.104C299.55 398.792 320.291 394.62 320.291 394.62L301.662 379.359C301.662 379.359 309.757 360.78 332.987 345.647C356.216 330.513 369.154 337.616 369.154 337.616L305.535 248.859H192.925V248.857Z" fill="#00826F"/>
<path d="M208.99 325.002C208.477 316.092 208.316 307.15 208.854 298.236C209.35 290.039 210.435 282.156 212.161 274.117C214 265.558 216.485 257.153 219.273 248.857H216.251C213.893 255.931 211.754 263.082 210.063 270.346C208.18 278.441 206.874 286.667 206.211 294.952C205.511 303.704 205.521 312.495 205.923 321.261C206.417 332.058 207.462 342.826 208.65 353.566C210.115 366.815 211.811 380.038 213.51 393.261C214.475 393.6 215.473 393.922 216.505 394.219C214.964 382.236 213.433 370.249 212.053 358.246C210.781 347.192 209.63 336.114 208.99 325.002ZM199.383 321.703C198.971 313.068 198.926 304.406 199.586 295.781C200.191 287.859 201.393 280.206 203.187 272.397C205.018 264.433 207.392 256.605 209.985 248.859H206.945C204.769 255.4 202.768 262 201.115 268.695C199.174 276.558 197.763 284.543 196.984 292.606C196.167 301.066 196.059 309.579 196.356 318.068C196.726 328.62 197.678 339.145 198.79 349.643C200.163 362.622 201.796 375.573 203.45 388.519C204.413 389.102 205.442 389.681 206.543 390.25C205.007 378.26 203.495 366.266 202.163 354.251C200.967 343.43 199.903 332.582 199.383 321.703Z" fill="white"/>
<path d="M301.665 379.357C301.588 379.557 301.514 379.751 301.443 379.944C298.183 388.753 300.488 390.497 302.793 391.447C307.503 393.386 316.409 391.447 316.409 391.447" fill="#303030"/>
<path d="M291.816 326.959C283.236 337.141 279.207 348.291 278.598 363.766" stroke="#303030" stroke-width="1.5" stroke-miterlimit="10" stroke-linecap="round" stroke-linejoin="round"/>
<path d="M263.786 67.1634C259.092 82.6527 267.286 103.594 283.503 108.509C299.72 113.424 317.819 100.45 322.514 84.9608C327.208 69.4715 317.867 52.9313 301.649 48.0163C285.433 43.1026 268.48 51.6741 263.786 67.1634Z" fill="#753C40"/>
<path d="M279.421 62.4193L270.4 55.8453C273.228 41.7242 290.445 38.6308 298.258 40.4723C302.04 41.3646 307.711 43.2669 311.678 43.2881C315.525 43.3079 319.515 42.1406 322.226 39.4121C323.389 40.7261 323.638 42.6654 323.253 44.3774C322.869 46.0893 321.929 47.6214 320.932 49.0663C327.662 49.3294 332.243 50.5839 334.968 56.0052C336.154 58.3636 336.872 63.9858 330.95 66.364C334.084 67.4692 335.435 73.0531 334.953 76.3408C334.007 82.7773 324.813 87.8761 311.641 80.4692C307.858 78.3409 287.961 66.8664 279.421 62.4193Z" fill="#303030"/>
<path d="M256.488 78.7116C258.116 75.6394 261.823 73.8178 266.365 75.1252C269.851 76.1285 272.549 79.2642 274.023 82.4646C275.106 84.9195 276.092 85.0332 277.408 80.7871C279.406 74.6612 280.431 67.3587 279.421 62.4199C309.226 66.7268 315.793 57.7164 322.181 67.5517C322.181 67.5517 325.667 76.1404 323.719 84.4489C322.392 90.1121 321.624 91.5491 320.116 95.8441C318.873 99.3816 316.738 105.586 315.839 109.596C314.171 117.035 312.934 121.806 308.508 124.299C304.081 126.792 296.564 124.996 294.641 124.47L294.667 124.509L292.202 134.691L298.107 136.803C298.107 136.803 294.545 151.49 279.911 160.773C264.312 155.62 253.216 135.077 251.803 129.859L257.934 130.063L268.87 107.837C267.19 104.79 266.845 101.305 267.731 97.905C268.617 94.505 269.649 90.5457 269.649 90.5457C266.204 91.5993 262.027 90.4096 259.241 88.1993C256.457 85.9903 254.878 81.7495 256.488 78.7116Z" fill="#AD6163"/>
<path d="M301.657 113.076C302.221 115.398 301.567 117.979 299.965 119.751" stroke="#303030" stroke-width="1.5" stroke-miterlimit="10" stroke-linecap="round" stroke-linejoin="round"/>
<path d="M307.516 86.9044C308.428 85.1171 310.428 84.472 312.502 84.6412C314.576 84.8118 317.43 85.7794 317.502 88.73C316.272 91.4876 309.639 91.2933 307.516 86.9044Z" fill="white"/>
<path d="M316.157 89.5673C315.339 90.7134 313.7 90.9553 312.494 90.1079C311.289 89.2606 310.975 87.6438 311.794 86.4977C312.612 85.3516 314.251 85.1097 315.457 85.957C316.661 86.8044 316.976 88.4211 316.157 89.5673Z" fill="#303030"/>
<path d="M311.621 86.3887L313.975 88.0252L311.033 87.7344L311.621 86.3887Z" fill="white"/>
<path d="M317.919 88.2585C316.987 85.957 314.727 85.0713 312.653 84.9008C310.579 84.7303 308.278 85.6755 307.516 86.9141" stroke="#303030" stroke-width="1.5" stroke-miterlimit="10" stroke-linecap="round" stroke-linejoin="round"/>
<path d="M310.736 78.3105C315.001 80.5248 320.976 77.6218 324.265 81.8811" stroke="#303030" stroke-width="1.5" stroke-miterlimit="10" stroke-linecap="round" stroke-linejoin="round"/>
<path d="M288.012 80.7279C289.118 79.0543 291.179 78.6365 293.22 79.0384C295.261 79.4403 297.99 80.7212 297.729 83.6613C296.199 86.2629 289.628 85.3269 288.012 80.7279Z" fill="white"/>
<path d="M296.299 84.331C295.357 85.3779 293.701 85.4348 292.598 84.4565C291.496 83.4796 291.365 81.8378 292.306 80.7908C293.247 79.7438 294.904 79.6869 296.006 80.6639C297.109 81.6421 297.24 83.284 296.299 84.331Z" fill="#303030"/>
<path d="M292.151 80.6777L294.306 82.5668L291.416 81.9481L292.151 80.6777Z" fill="white"/>
<path d="M298.199 83.2292C297.53 80.8365 295.383 79.7036 293.342 79.3017C291.301 78.8998 288.908 79.5807 288.012 80.7268" stroke="#303030" stroke-width="1.5" stroke-miterlimit="10" stroke-linecap="round" stroke-linejoin="round"/>
<path d="M286.357 71.1377C290.604 69.9321 295.175 75.5133 300.646 75.1472" stroke="#303030" stroke-width="1.5" stroke-miterlimit="10" stroke-linecap="round" stroke-linejoin="round"/>
<path d="M305.055 79.4746C306.579 83.956 307.558 89.3826 308.201 92.7628C308.873 96.2885 307.698 100.699 301.514 98.475" stroke="#303030" stroke-width="1.5" stroke-miterlimit="10" stroke-linecap="round" stroke-linejoin="round"/>
<path d="M290.951 100.326C293.181 103.787 297.215 106.013 301.332 106.054" stroke="#303030" stroke-width="1.5" stroke-miterlimit="10" stroke-linecap="round" stroke-linejoin="round"/>
<path d="M260.76 79.5915C261.731 79.216 263.88 79.2742 265.799 80.3318C267.719 81.3893 269.026 83.4212 269.142 85.5257" stroke="#303030" stroke-width="1.5" stroke-miterlimit="10" stroke-linecap="round" stroke-linejoin="round"/>
<path d="M263.719 82.6901C264.434 82.4178 266.85 81.8719 268.667 83.5203" stroke="#303030" stroke-width="1.5" stroke-miterlimit="10" stroke-linecap="round" stroke-linejoin="round"/>
<path d="M294.667 124.513C287.541 121.968 279.945 117.746 276.049 113.287C276.371 116.776 280.28 123.419 293.263 129.648L294.667 124.513Z" fill="#303030"/>
<path d="M428.065 281.572C427.365 280.251 425.429 280.203 423.926 279.842C419.756 278.841 415.062 278.294 410.94 277.114C406.818 275.935 403.445 275.013 400.215 272.193C399.998 272.004 399.524 271.45 399.581 270.872C399.635 270.316 400.227 270.033 400.776 269.927C403.032 269.492 415.065 266.893 411.581 262.494C411.294 262.131 410.871 261.904 410.442 261.735C408.3 260.895 405.256 261.233 402.964 261.139C400.22 261.026 397.473 261.021 394.729 261.123C390.942 261.263 387.216 261.456 383.105 261.186C378.994 260.917 373.744 259.784 371.36 257.934C359.128 248.445 341.831 229.622 341.831 229.622C339.153 225.052 340.71 209.732 331.617 189.734C333.865 174.049 334.632 168.268 330.714 158.907C329.197 155.286 325.47 148.836 318.717 145.123C311.2 151.767 291.117 193.011 293.082 207.914C294.088 217.136 299.528 235.038 301.915 243.09C304.302 251.142 307.742 254.541 318.279 260.876C331.791 268.998 354.27 279.4 358.535 281.893C367.805 287.467 375.994 294.612 384.631 301.032C389.08 304.34 393.865 307.21 399.174 308.806C403.246 310.03 405.108 308.5 404.867 306.513C404.387 302.538 398.162 301.079 394.728 297.061C400.33 299.835 406.455 302.312 412.549 303.707C414.483 304.15 416.516 304.474 418.437 303.974C420.356 303.473 422.134 301.953 422.364 299.982C423.972 300.435 426.46 298.693 426.593 296.391C426.71 294.391 426.369 292.175 422.53 290.937C415.48 288.663 406.878 286.514 401.767 283.538C401.533 283.402 401.316 283.045 401.54 282.891C406.328 284.762 411.345 286.044 416.442 286.701C418.638 286.984 420.864 287.152 423.066 286.922C424.44 286.778 425.852 286.455 426.936 285.599C428.02 284.742 428.687 283.238 428.223 281.937C428.178 281.807 428.126 281.687 428.065 281.572Z" fill="#AD6163"/>
<path d="M394.23 278.919C387.531 282.321 381.02 279.793 376.1 277.436" stroke="#303030" stroke-width="1.5" stroke-miterlimit="10" stroke-linecap="round" stroke-linejoin="round"/>
<path d="M422.303 300.136C421.862 297.986 419.991 296.82 415.193 295.633C408.402 293.952 404.012 292.858 396.914 289.068" stroke="#303030" stroke-width="1.5" stroke-miterlimit="10" stroke-linecap="round" stroke-linejoin="round"/>
<path d="M221.791 129.648C213.435 135.439 205.312 152.237 203.099 164.075C191.462 226.309 189.145 266.95 189.145 266.95C189.145 266.95 206.371 297.122 250.18 293.712C281.046 291.31 292.945 261.586 318.199 266.54C318.793 252.676 311.437 243.411 311.437 243.411C311.437 243.411 308.725 235.509 317.748 193.842C323.079 169.22 325.108 158.618 318.717 145.13C312.896 141.461 305.127 138.059 295.937 135.354C293.478 143.784 288.239 150.099 279.243 157.696C265.24 147.504 258.298 136.137 255.079 128.568C244.44 128.57 233.278 128.57 221.791 129.648Z" fill="white" stroke="#303030" stroke-width="1.5" stroke-miterlimit="10" stroke-linecap="round" stroke-linejoin="round"/>
<path d="M209.327 146.217C206.376 152.188 204.113 158.648 203.099 164.074C191.462 226.308 189.145 266.949 189.145 266.949C189.145 266.949 195.523 278.085 210.345 286.062C211.111 267.052 214.358 244.054 219.276 219.268C225.975 185.493 223.784 188.723 215.012 160.777L209.327 146.217Z" fill="#303030"/>
<path d="M267.39 177.292C265.468 175.926 263.036 175.132 260.095 174.914C256.709 174.663 253.548 175.245 250.618 176.663C247.683 178.079 245.063 180.314 242.752 183.367L247.916 189.946C249.608 187.756 251.224 186.208 252.774 185.301C254.316 184.394 255.937 184.003 257.631 184.128C259.364 184.256 260.662 184.888 261.525 186.017C262.391 187.149 262.645 188.631 262.288 190.466C262.123 191.316 261.818 192.146 261.376 192.952C260.933 193.76 260.317 194.613 259.53 195.506C258.744 196.401 257.736 197.37 256.513 198.416L237.533 215.071C236.849 215.671 236.384 216.48 236.211 217.373C235.743 219.784 237.485 222.064 239.935 222.247L262.011 223.885C264.312 224.055 266.375 222.478 266.815 220.215C267.335 217.539 265.402 215.01 262.686 214.809L251.727 213.996L261.986 205.293C263.996 203.581 265.642 201.989 266.929 200.516C268.218 199.045 269.236 197.533 269.989 195.976C270.739 194.422 271.298 192.704 271.664 190.823C272.247 187.826 272.16 185.162 271.407 182.835C270.65 180.51 269.313 178.662 267.39 177.292ZM306.799 186.587C305.894 183.999 304.391 181.891 302.295 180.258C300.199 178.629 297.66 177.701 294.677 177.48C291.693 177.259 288.871 177.797 286.207 179.098C283.541 180.399 281.26 182.251 279.365 184.652C277.466 187.054 276.214 189.822 275.606 192.954C275.023 195.952 275.14 198.674 275.953 201.117C276.766 203.561 278.118 205.546 280.01 207.071C281.9 208.596 284.137 209.454 286.717 209.647C287.147 209.679 287.553 209.689 287.941 209.687L280.278 218.36C277.937 221.011 279.64 225.195 283.167 225.456C284.528 225.557 285.855 225.003 286.74 223.964L301.145 207.039C304.435 203.152 306.471 199.196 307.254 195.166C307.861 192.033 307.71 189.173 306.799 186.587ZM297.995 194.82C297.717 196.252 297.185 197.517 296.399 198.617C295.611 199.715 294.65 200.564 293.514 201.162C292.377 201.758 291.18 202.009 289.932 201.918C288.683 201.825 287.62 201.405 286.742 200.659C285.863 199.912 285.243 198.946 284.881 197.761C284.519 196.577 284.475 195.27 284.754 193.837C285.041 192.36 285.59 191.061 286.4 189.939C287.209 188.82 288.172 187.972 289.287 187.397C290.398 186.822 291.599 186.58 292.89 186.678C294.137 186.771 295.206 187.179 296.086 187.902C296.968 188.624 297.577 189.589 297.918 190.795C298.257 192.002 298.283 193.344 297.995 194.82Z" fill="#00826F"/>
<path d="M304.49 247.115C290.119 252.812 279.778 267.743 265.895 276.612C255.821 283.047 240.692 286.729 226.551 281.894" stroke="#303030" stroke-width="1.5" stroke-miterlimit="10" stroke-linecap="round" stroke-linejoin="round"/>
<path d="M222.262 128.568C200.939 129.647 194.134 137.575 181.776 150.498C167.718 159.379 148.754 169.292 136.991 178.981C129.97 184.763 127.074 187.616 123.514 193.062C119.299 199.509 120.017 209.045 120.35 214.787C121.278 230.825 127.851 257.764 128.962 269.133C130.072 280.501 129.239 277.005 129.763 283.752C130.286 290.499 130.852 295.565 132.322 301.002C133.602 305.735 136.079 315.011 141.032 314.954C144.764 314.912 143.447 311.147 142.305 306.088C141.29 301.596 139.824 291.821 141.123 295.393C142.768 299.91 146.302 307.839 148.076 311.783C150.125 316.335 154.416 322.251 157.923 321.779C161.429 321.306 159.795 319.618 160.754 318.177C162.64 318.538 164.408 321.352 166.771 318.503C169.133 315.655 165.162 308.8 162.88 304.852C161.345 302.196 158.655 295.537 157.706 292.03C160.757 297.602 166.066 304.644 170.183 308.817C172.792 311.464 174.928 313.09 177.165 310.753C179.403 308.416 176.397 304.955 174.423 302.258C172.45 299.561 167.001 291.489 165.821 288.752C164.542 285.777 162.625 281.616 166.231 281.776C169.838 281.936 173.676 287.576 177.72 287.801C180.331 287.947 183.14 286.358 181.58 283.517C180.021 280.676 176.626 278.245 174.168 275.74C171.001 272.51 167.112 269.304 163.386 266.671C157.529 262.532 155.249 259.444 154.654 252.031C154.557 250.833 154.631 248.712 154.677 247.405C155.106 235.227 155.442 223.204 157.399 211.162C162.765 208.651 170.365 205.965 175.322 203.608C184.058 199.453 191.358 194.296 199.811 189.575C209.016 185.254 218.77 180.74 224.422 168.346C228.963 158.388 231.401 141.145 222.262 128.568Z" fill="#AD6163"/>
<path d="M150.32 295.412C152.644 303.525 156.166 310.977 160.68 318.097" stroke="#303030" stroke-width="1.5" stroke-miterlimit="10" stroke-linecap="round" stroke-linejoin="round"/>
<path d="M473.516 337.756C487.372 316.731 481.561 288.454 460.536 274.598C439.511 260.742 411.234 266.553 397.378 287.578C383.522 308.602 389.333 336.879 410.358 350.735C431.383 364.592 459.659 358.78 473.516 337.756Z" fill="#F55571" stroke="#303030" stroke-width="1.5" stroke-miterlimit="10" stroke-linecap="round" stroke-linejoin="round"/>
<path d="M479.253 325.375C473.58 345.014 455.114 359.033 433.77 358.245C408.605 357.317 388.961 336.169 389.889 311.017C390.167 303.491 392.253 296.463 395.715 290.334C394.694 293.835 394.098 297.51 393.958 301.315C393.03 326.48 412.674 347.629 437.839 348.557C455.475 349.207 471.141 339.76 479.253 325.375Z" fill="#303030"/>
<path d="M413.402 272.779C442.34 276.337 469.934 312.275 464.747 347.618" stroke="#303030" stroke-width="1.5" stroke-miterlimit="10" stroke-linecap="round" stroke-linejoin="round"/>
<path d="M443.53 267.818C444.606 273.924 438.755 277.693 433.327 280.32C420.745 286.408 400.196 286.541 395.404 290.869" stroke="#303030" stroke-width="1.5" stroke-miterlimit="10" stroke-linecap="round" stroke-linejoin="round"/>
<path d="M468.892 281.715C438.705 277.179 403.951 307.484 401.246 342.843" stroke="#303030" stroke-width="1.5" stroke-miterlimit="10" stroke-linecap="round" stroke-linejoin="round"/>
<path d="M481 310.828C477.05 305.272 466.577 289.201 450.502 296.412C430.07 305.579 434.396 341.135 431.211 358.157" stroke="#303030" stroke-width="1.5" stroke-miterlimit="10" stroke-linecap="round" stroke-linejoin="round"/>
</svg>
