<svg width="2209" height="1671" viewBox="0 0 2209 1671" fill="none" xmlns="http://www.w3.org/2000/svg">
<path opacity="0.3" d="M1764.89 1037.19L1744 1039.3M1764.89 1037.19L1751.47 1032.87L1744 1039.3M1764.89 1037.19L1780.47 1080.55M1764.89 1037.19L1784.06 1048.07M1764.89 1037.19L1754.02 1053.85M1744 1039.3L1784.06 1048.07M1780.47 1080.55L1784.06 1048.07M1780.47 1080.55L1754.02 1053.85M1780.47 1080.55L1740 1068.81L1754.02 1053.85M1780.47 1080.55L1753.2 1100.88L1754.02 1053.85M1784.06 1048.07L1754.02 1053.85M1718.83 1032.53L1699.83 1042.8L1722.36 1061.42M1718.83 1032.53L1722.36 1061.42M1718.83 1032.53L1690.8 1035.55L1699.85 1042.8L1718.83 1032.53ZM1718.83 1032.53L1743.96 1039.3M1718.83 1032.53L1751.43 1032.87L1743.96 1039.3M1718.83 1032.53L1743.86 1039.28L1753.88 1053.83L1718.83 1032.53ZM1722.36 1061.42L1743.96 1039.3M1722.36 1061.42L1699.91 1042.8L1743.96 1039.3M1754.64 1217.45L1760.55 1282.33M1754.64 1217.45L1777.57 1248.79L1760.55 1282.33M1754.64 1217.45L1769.94 1215.24L1760.55 1282.33M1753.16 1130.07L1773.64 1113.29L1773.52 1138.34M1753.16 1130.07L1773.52 1138.34M1753.16 1130.07V1100.86L1773.52 1138.34M1723.06 1142.25L1708.26 1162.51L1697.28 1136.16L1723.06 1142.25ZM1723.06 1142.25L1722.12 1109.59M1723.06 1142.25L1733.69 1122.76M1733.69 1122.76L1709.4 1117.12L1722.12 1109.59M1733.69 1122.76L1722.12 1109.59M1733.69 1122.76L1773.74 1113.31L1753.2 1130.09L1733.69 1122.76ZM1636.73 1153.06L1612.42 1163.6L1620.43 1137.34L1636.73 1153.06ZM1636.73 1153.06L1677.74 1128.03M1636.73 1153.06L1623.27 1115.25L1677.74 1128.03M1677.86 1128.05L1623.39 1115.27L1620.43 1137.3L1677.86 1128.05ZM1677.86 1128.05L1697.34 1136.06L1688.65 1140.93L1677.86 1128.05ZM1677.74 1128.03L1693.46 1090.2M1677.74 1128.03L1671.97 1094.39M1671.97 1094.39L1709.34 1117.08L1693.46 1090.2M1671.97 1094.39L1693.46 1090.2M1721.98 1109.39L1740 1068.61L1753.06 1100.68M1721.98 1109.39L1753.06 1100.68M1721.98 1109.39L1693.38 1090.04L1753.06 1100.68M1608.87 1032.23L1630.9 1050.97L1641.35 1026.46L1608.87 1032.23ZM1608.87 1032.23L1641.31 1026.46M1608.87 1032.23L1678.28 1048.13L1641.31 1026.46M1641.31 1026.46L1659.34 1027.22L1630.86 1050.97L1641.31 1026.46ZM1506.02 995.46L1566.64 967.143L1567.26 1017.83M1506.02 995.46L1567.26 1017.83M1506.02 995.46L1496.85 967.904L1567.26 1017.83M1553.98 830.787L1516.21 887.741M1553.98 830.787L1586.8 867.715L1516.21 887.741M1553.98 830.787L1601.78 818.532L1516.21 887.741M1514.57 956.569L1529.13 925.389M1514.57 956.569L1507.96 908.988M1514.57 956.569L1506.12 995.7L1496.95 968.144M1514.57 956.569L1496.95 968.144M1514.57 956.569L1566.74 967.383L1529.13 925.329L1514.57 956.569ZM1529.13 925.389L1507.96 908.988M1529.13 925.389L1496.95 968.144M1507.96 908.988L1516.31 887.981L1540.16 898.595L1507.96 908.988ZM1507.96 908.988L1496.95 968.144M1496.95 968.144L1404.83 955.708M1496.95 968.144L1490.94 941.51L1404.83 955.708M1769.92 1215.34L1754.62 1217.55L1758.98 1186.45M1769.92 1215.34L1758.98 1186.45M1769.92 1215.34L1773.5 1138.44L1777.55 1248.89L1769.92 1215.34ZM1758.98 1186.45L1753.14 1130.17L1773.5 1138.38L1758.98 1186.45ZM1672.89 1424.55L1681.62 1388.37L1722.66 1389.75L1672.89 1424.55ZM1672.89 1424.55L1629.7 1407.39M1672.89 1424.55L1681.72 1388.29L1629.7 1407.39M1705.72 1309.26L1760.53 1282.43L1753.24 1305.9L1705.72 1309.26ZM1705.72 1309.26L1754.62 1343.75M1705.72 1309.26L1702.23 1364.21M1705.72 1309.26L1722.66 1389.63M1705.72 1309.26L1702.23 1364.13M1705.72 1309.26L1673.93 1358.97M1705.72 1309.26L1676.2 1311.95L1673.93 1358.97M1705.72 1309.26L1676.2 1312.09L1687.67 1291.52L1705.72 1309.26ZM1757.4 1357.33L1702.23 1364.25L1754.62 1343.75M1757.4 1357.33L1754.62 1343.75M1757.4 1357.33L1722.58 1389.71L1754.62 1343.75M1754.62 1343.75L1702.23 1364.21M1754.62 1343.75L1753.24 1306.02L1702.23 1364.21M1702.23 1364.21L1681.62 1388.25L1673.93 1358.97M1702.23 1364.21L1673.93 1358.97M1607.89 1373.35L1618.42 1403.38M1607.89 1373.35L1629.7 1407.39M1607.89 1373.35L1558.63 1376.53M1607.89 1373.35L1566.64 1359.75L1558.63 1376.53M1607.89 1373.35L1632.22 1361.89L1618.42 1403.38M1618.42 1403.38L1629.7 1407.39M1629.7 1407.39L1632.22 1361.77L1673.93 1359.09L1629.7 1407.39ZM1630.94 1331.61L1590.13 1306.22L1627.86 1292.66M1630.94 1331.61L1627.86 1292.66M1630.94 1331.61L1676.2 1311.99L1627.86 1292.66M1722.66 1389.63L1702.23 1364.13M1722.66 1389.63L1672.89 1424.43L1702.23 1364.13M1692.62 1261.84L1705.72 1309.3L1714.11 1256.76M1692.62 1261.84L1714.11 1256.76M1692.62 1261.84L1760.53 1282.31L1714.11 1256.76M1714.11 1256.76L1708.98 1211.2M1714.11 1256.76L1754.62 1217.43M1708.98 1211.2L1754.62 1217.43M1708.98 1211.2L1708.2 1162.47L1728.46 1183.52M1708.98 1211.2L1728.46 1183.52M1708.98 1211.2L1752.74 1172.13M1754.62 1217.43L1728.46 1183.52M1754.62 1217.43L1752.74 1172.13M1558.63 1376.53L1510.56 1367.18L1547.37 1323.72L1558.63 1376.53ZM1728.46 1183.52L1723 1142.21L1752.74 1172.13M1728.46 1183.52L1752.74 1172.13M1521.48 1163.08L1585.32 1176.57M1521.48 1163.08L1561.29 1153M1521.48 1163.08L1522.98 1126.07M1521.48 1163.08L1561.91 1120.64M1521.48 1163.08L1561.33 1153.06L1561.91 1120.64M1521.48 1163.08L1227.88 538.11M1585.32 1176.57L1561.29 1153M1585.32 1176.57L1522.98 1126.07M1585.32 1176.57L1612.3 1163.68M1561.29 1153L1612.3 1163.68M1561.29 1153L1561.91 1120.64M1561.29 1153L1620.27 1137.42L1561.91 1120.64M1539.24 1093.15L1522.98 1126.13L1505.4 1091.72L1539.24 1093.15ZM1539.24 1093.15L1586.42 1036.91M1539.24 1093.15L1552.2 1033.79M1539.24 1093.15L1561.95 1120.64M1539.24 1093.15L1623.35 1115.35L1601.32 1078.33L1539.24 1093.15ZM1539.24 1093.15L1489.46 1032.65L1505.48 1091.72L1539.24 1093.15ZM1522.98 1126.07L1462.6 1102.84L1505.4 1091.66M1522.98 1126.07L1505.4 1091.66M1612.3 1163.68L1601.2 1078.33M1612.3 1163.68L1561.33 1153L1601.2 1078.33M1561.91 1120.64L1505.36 1091.72M1561.91 1120.64L1539.2 1093.15M1506.06 995.76L1489.42 1032.65M1506.06 995.76L1520.68 1037.89M1506.06 995.76L1505.36 1091.72M1489.42 1032.65L1520.68 1037.89M1489.42 1032.65L1505.36 1091.72M1520.68 1037.89L1552.16 1033.89L1567.3 1018.23L1520.68 1037.89ZM1505.36 1091.72L1539.2 1093.15M1539.2 1093.15L1552.16 1033.79L1520.68 1037.79L1539.2 1093.15ZM1586.42 1036.91L1595.57 1008.46M1586.42 1036.91L1552.2 1033.79M1586.42 1036.91L1601.2 1078.33M1586.42 1036.91L1630.94 1051.31L1601.2 1078.33M1586.42 1036.91L1520.72 1037.89L1601.2 1078.33M1595.57 1008.46L1552.2 1033.79M1595.57 1008.46L1641.39 1026.8L1608.95 1032.49L1595.57 1008.46ZM1552.2 1033.79L1561.95 1120.64M1601.2 1078.33L1620.31 1137.42L1561.95 1120.64M1601.2 1078.33L1561.95 1120.64M1875.59 1064.95L1842.27 1080.97M1875.59 1064.95L1883.42 1082.03L1842.27 1080.97M1875.59 1064.95L1914.78 1086.32M1875.59 1064.95L1883.42 1082.01L1914.78 1086.32M1875.59 1064.95L1847 1098.39L1842.27 1080.97M1875.59 1064.95L1883.48 1082.05L1874.93 1109.73M1875.59 1064.95L1874.93 1109.73M1842.27 1080.97L1799.74 1098.09L1827.77 1097.21L1842.27 1080.97ZM1842.27 1080.97L1874.93 1109.73M1842.27 1080.97L1847 1099.23M1921.65 1150.16L1914.78 1086.32M1921.65 1150.16L1874.91 1109.69M1921.65 1150.16L1905.83 1098.63L1874.91 1109.69M1914.78 1086.32L1874.91 1109.69M1874.91 1109.69L1896.38 1166.88L1873.99 1150.82L1874.91 1109.69ZM1847 1099.23L1840.61 1108.83L1827.83 1097.23L1847 1099.23ZM1847 1099.23L1874.93 1109.73M1824.97 1305.56L1794.33 1346.99M1824.97 1305.56L1835.9 1339.76M1824.97 1305.56L1856.67 1277.98L1851.58 1312.33M1824.97 1305.56L1851.58 1312.33M1794.33 1346.99L1835.9 1339.76M1794.33 1346.99L1851.58 1312.33M1835.9 1339.76L1851.58 1312.33M1867.6 1245.54L1844.01 1257.2M1867.6 1245.54L1856.63 1277.94L1844.01 1257.2M1867.6 1245.54L1866.94 1206.37L1886.09 1204.43M1867.6 1245.54L1886.09 1204.43M1844.01 1257.2L1823.23 1252.71L1849 1227.96M1844.01 1257.2L1849 1227.96M1886.09 1204.43L1849 1227.96M1886.09 1204.43L1867.48 1245.54L1849 1227.96M1886.09 1204.43L1882.44 1185.02L1905.59 1183.6L1886.09 1204.43ZM1873.91 1150.74L1882.36 1184.9L1866.86 1206.25L1873.91 1150.74ZM1873.91 1150.74L1882.4 1185.1M1873.91 1150.74L1896.42 1167.08L1882.4 1185.1M1882.4 1185.1L1847.38 1181.14M1882.4 1185.1L1873.95 1150.94L1847.38 1181.14M1840.51 1108.69L1851.06 1120.44M1840.51 1108.69L1874.83 1109.59L1851.06 1120.44M1840.51 1108.69L1820.06 1114.37M1840.51 1108.69L1827.73 1097.09L1820.06 1114.37M1851.06 1120.44L1832.46 1141.81M1851.06 1120.44L1805.58 1128.17M1851.06 1120.44L1873.91 1150.72L1832.76 1141.05L1851.06 1120.44ZM1851.06 1120.44L1847.38 1181.14M1820.06 1114.37L1805.58 1128.17M1820.06 1114.37L1832.46 1141.81M1805.58 1128.17L1832.46 1141.81M1832.46 1141.81L1847.38 1181.14M1846.06 892.146L1825.45 843.904M1846.06 892.146L1810.53 874.544L1825.45 843.904M1846.06 892.146L1831.06 897.974L1825.45 843.904M1846.06 892.146L1880.1 933.42L1831.06 897.954L1846.06 892.146ZM1845.74 962.517L1885.05 1007.94M1845.74 962.517L1890.41 964.239L1885.05 1007.94M1845.74 962.517L1880.04 933.42L1890.35 964.239L1845.74 962.517ZM1885.05 1007.94L1878.82 1030.46M1885.05 1007.94L1850.86 1036.57L1878.82 1030.46M1885.05 1007.94L1845.74 962.377L1878.82 1030.46M1851.74 749.523L1873.63 781.264M1851.74 749.523L1889.37 772.673L1873.63 781.264M1851.74 749.523L1858.85 718.843M1851.74 749.523L1887.05 718.383M1851.74 749.523L1880.26 752.587M1873.63 781.264L1907.48 807.297M1873.63 781.264L1889.45 772.673L1907.48 807.297M1873.63 781.264L1880.26 752.587M1864.26 665.535L1842.99 709.371M1864.26 665.535L1876.34 692.469M1864.26 665.535L1858.85 718.843M1864.26 665.535L1843.13 709.231L1858.85 718.843M1842.99 709.371L1876.34 692.469M1842.99 709.371L1822.97 680.554M1842.99 709.371L1811.89 715.219L1822.97 680.554M1876.34 692.469L1892.8 689.405L1908.58 702.562L1876.34 692.469ZM1876.34 692.469L1892.82 689.465L1887.05 718.383M1876.34 692.469L1887.05 718.383M1858.85 718.843L1880.26 752.587M1858.85 718.843L1887.05 718.383M1880.26 752.587L1887.05 718.383M1880.26 752.587L1889.37 772.613L1916.53 763.321L1880.26 752.587ZM1887.05 718.383L1908.62 702.682L1909.18 717.241M1887.05 718.383L1909.18 717.241M1887.05 718.383L1899.59 725.372L1880.14 752.787L1887.05 718.383ZM1887.05 718.383L1880.12 752.727L1901.07 747.58M1887.05 718.383L1901.07 747.58M1924.54 824.239L1937.11 888.822M1924.54 824.239L1948.95 829.806M1924.54 824.239L1907.48 807.297M1924.54 824.239L1916.53 763.381M1924.54 824.239L1912.14 844.765M1937.11 888.822L1948.95 829.806M1937.11 888.822L1912.14 844.765M1937.11 888.822L1952.43 912.072L1941.76 919.201M1937.11 888.822L1941.76 919.201M1948.95 829.806L1912.14 844.765M1916.53 763.381L1907.48 807.297M1916.53 763.381L1944.12 782.185L1907.48 807.297M1907.48 807.297L1912.14 844.765M1941.76 919.201L1936.29 952.224M1941.76 919.201L1983.99 941.67M1983.99 941.67L1936.29 952.224M1983.99 941.67L2013.17 987.83M1936.29 952.224L2013.17 987.83M1936.29 952.224L2018.5 944.314M2013.17 987.83L2047.68 940.309M2013.17 987.83L2035.5 982.363M2013.17 987.83L2018.5 944.314M2018.5 944.314L2035.5 982.363M2018.5 944.314L2047.68 940.309M2018.5 944.314L2050.16 919.902M2018.5 944.314L2025.05 911.431M2035.5 982.363L2047.68 940.309M2047.68 940.309L2025.05 911.431M2047.68 940.309L2050.16 919.902M2025.05 911.431L2050.16 919.902M2025.05 911.431L2043.55 874.123L2050.16 919.902M1983.17 895.351L1968.05 880.031L1952.27 912.212L1983.17 895.351ZM1983.17 895.351L2024.89 911.511L1980.67 919.382M1983.17 895.351L1980.67 919.382M1980.67 919.382L1936.13 952.304L1983.83 941.75M1980.67 919.382L1983.83 941.75M1980.67 919.382L2018.34 944.394L1983.83 941.75M1949.35 706.688L1980.87 704.485M1949.35 706.688L1956.5 691.007L1980.87 704.485M1949.35 706.688L1937.69 694.272M1949.35 706.688L1938.42 685.56M1980.87 704.485L1994.07 693.411L1998.35 709.551M1980.87 704.485L1998.35 709.551M1980.87 704.485L1957.74 725.492M1980.87 704.485L1949.35 706.748L1957.74 725.492M1938.42 685.56L1956.44 690.967L1955.12 681.515L1938.42 685.56ZM1938.42 685.56L1937.69 694.272M1937.69 694.272L1955.14 681.515L1938.42 685.52L1937.69 694.272ZM1911.82 679.332L1908.6 702.622L1938.44 685.62L1911.82 679.332ZM1911.82 679.332L1937.71 694.332L1926.44 705.166L1911.82 679.332ZM1909.18 717.241L1926.44 705.226M1909.18 717.241L1908.6 702.682L1926.44 705.226M1926.44 705.226L1933.25 722.288L1949.27 706.808L1926.44 705.226ZM2060.39 697.796L2065.56 714.438L2070.06 682.456L2060.39 697.796ZM2060.39 697.796L2042.05 712.795L2032.16 697.676L2060.39 697.796ZM2041.05 758.554L2038.68 782.585M2041.05 758.554L2062.56 769.929M2041.05 758.554L2006.64 738.228M2041.05 758.554L2033.6 725.552M2041.05 758.554L2051.58 742.714M2038.68 782.585L2062.56 769.929M2038.68 782.585L2046.29 827.864L2062.56 769.929M2038.68 782.585L2046.37 806.476M2038.68 782.585L2026.83 809.921M2020.04 711.033L1996.55 725.772L1998.35 709.551M2020.04 711.033L1998.35 709.551M2020.04 711.033L2042.07 712.795L2033.6 725.552M2020.04 711.033L2033.6 725.552M2020.04 711.033L2032.18 697.676L2033.6 725.552M1998.35 709.551L2033.6 725.572L1996.55 725.792L1998.35 709.551ZM2033.6 725.552L2006.64 738.228M1916.41 763.581L1928.42 752.487L1901.07 747.58M1916.41 763.581L1901.07 747.58M1916.41 763.581L1901.11 747.56L1916.41 726.854V763.581ZM1940.28 745.898L1933.27 722.208M1940.28 745.898L1928.5 752.406L1933.27 722.208M1940.28 745.898L1916.41 726.834L1933.27 722.208M2006.64 738.228L2051.58 742.714M2006.64 738.228L1974.2 761.819M2006.64 738.228L1996.51 725.732L1974.2 761.819M2006.64 738.228L1957.74 725.512L1974.2 761.819M2051.58 742.714L1999.51 767.786M2051.58 742.714L2007.52 738.709L1999.51 767.786M1974.2 761.819L1943.96 782.345L1940.16 745.938L1974.2 761.819ZM1999.51 767.786L1995.51 791.257M1999.51 767.786L1974.2 761.779L1995.51 791.257M1995.51 791.257L1944.06 782.345L1948.89 829.966L1995.51 791.257ZM1976.92 691.588L1955.14 681.575L1966.69 661.93L1976.92 691.588ZM1976.92 691.588L1994.03 693.35L1988.02 676.669L1976.92 691.588ZM2045.59 673.144L2070.02 682.436L2054.79 662.411L2045.59 673.144ZM2045.59 673.144L2032.14 697.616L2023.04 677.23L2045.59 673.144ZM2054.83 662.431L2060.37 697.736L2045.63 673.084M2054.83 662.431L2045.63 673.084M2054.83 662.431L2031.07 641.063L2045.63 673.104L2054.83 662.431ZM2054.83 662.431L2053 647.852L2045.63 673.084M1957.74 725.492L1940.24 745.918L2007.56 738.749L1957.74 725.492ZM2048.02 560.439L2030.19 596.065L2011.27 579.644L2048.02 560.439ZM2048.02 560.439L2022.74 546.421L2030.19 596.145L2048.02 560.439ZM1996.47 520.888L1990.02 562.021M1996.47 520.888L2022.78 546.281M1996.47 520.888L2024.07 530.581L1990.02 562.021M1990.02 562.021L2022.78 546.281M2022.78 546.281L1990.06 562.101L1978.15 527.377L2022.78 546.281ZM1999.39 610.364L2029.89 615.63M1999.39 610.364L2030.23 596.165L2029.89 615.63M1999.39 610.364L1984.09 606.799L1981.79 615.07L1999.39 610.364ZM1999.39 610.364L2006.56 651.156L2031.07 641.143L1999.39 610.364ZM2029.89 615.63L2048.06 560.539L2040.61 612.606M2029.89 615.63L2040.61 612.606M1859.93 502.805L1850.16 557.095M1859.93 502.805L1881.24 560.9M1859.93 502.805L1870.39 576.84M1850.16 557.095L1881.24 560.9M1850.16 557.095L1870.39 576.84M1881.24 560.9L1848.3 581.166M1881.24 560.9L1850.16 557.135L1848.3 581.166M1870.39 576.84L1851.32 610.283L1848.3 581.166M1870.39 576.84L1848.3 581.166M1875.97 617.192L1870.39 576.88L1900.63 582.067M1875.97 617.192L1900.63 582.067M1875.97 617.192L1881.24 560.94L1900.63 582.067M1875.97 617.192L1902.21 637.478L1923.84 606.018L1875.97 617.192ZM1951.37 631.651L1981.79 615.19L1978.59 634.014L1951.37 631.651ZM1951.37 631.651L1923.84 606.098L1945.36 605.617M1951.37 631.651L1945.36 605.617M1951.37 631.651L1902.21 637.559L1925.82 646.57L1951.37 631.651ZM1945.36 605.617L1925.82 646.41M1945.36 605.617L1951.37 631.491L1925.82 646.41M1925.82 646.41L1902.21 637.398M1925.82 646.41L1911.84 679.453L1902.21 637.398M1925.82 646.41L1864.14 665.715L1902.21 637.398M1925.82 646.41L1951.37 631.511M1925.82 646.41L1966.73 661.99L1951.37 631.511M1925.82 646.41L1938.46 685.661L1951.37 631.511M1937.51 571.754L1974.58 561.921L1942.88 547.402L1937.51 571.754ZM1937.51 571.754L1923.84 605.898L1900.63 581.947L1937.51 571.754ZM1974.58 561.981L1979.77 576.32M1974.58 561.981L1990.06 562.001L1979.77 576.32M1974.58 561.981L1978.15 527.517L1951.33 521.109L1974.58 561.981ZM1979.77 576.32L1994.79 594.223L2011.31 579.624L1979.77 576.32ZM1979.77 576.32L1945.42 605.477M1979.77 576.32L1937.51 571.814L1945.42 605.477M1897.52 492.211L1880.6 487.125L1885.97 492.552L1897.52 492.211ZM1897.52 492.211L1892.82 512.237M1897.52 492.211L1906.37 521.169M1906.37 521.169L1916.55 484.582L1932.71 503.145M1906.37 521.169L1932.71 503.145M1906.37 521.169L1892.82 512.237M1932.71 503.145L1892.82 512.237M1978.71 501.684L1996.51 521.028L1951.33 521.049L1978.71 501.684ZM1978.71 501.684L1958 490.629L1945.32 503.666L1978.71 501.684ZM2040.61 612.606L2053 648.032L2031.07 641.243L2040.61 612.606ZM1816.5 593.442L1779.55 633.794M1816.5 593.442L1851.32 610.203L1779.55 633.794M1816.5 593.442L1851.32 610.243L1845.22 642.805L1816.5 593.442ZM1779.55 633.794L1750.09 652.918M1779.55 633.794L1724.3 620.376M1779.55 633.794L1775.39 576.56L1750.09 652.918M1779.55 633.794L1816.5 593.402L1822.85 643.466L1779.55 633.794ZM1783.8 504.948L1770.04 515.301L1787.66 514.44L1783.8 504.948ZM1783.8 504.948L1794.41 475.65L1766.19 489.668L1783.8 504.948ZM1889.05 455.804L1931.37 459.81M1889.05 455.804L1913.34 448.896M1889.05 455.804L1885.51 438.002M1889.05 455.804H1867.48L1885.51 438.002M1931.37 459.81L1913.34 448.896M1931.37 459.81L1916.51 484.562L1913.34 448.896M1931.37 459.81L1980.51 482.479M1931.37 459.81L1961.91 455.824M1980.51 482.479L1961.91 455.824M1980.51 482.479L1957.9 490.529L1961.91 455.824M1656.23 514.24L1665.08 533.685L1689.74 531.682L1656.23 514.24ZM1656.23 514.24L1689.69 531.582L1692.18 552.008L1656.23 514.24ZM1758.88 555.793L1775.31 576.58L1741.26 596.125L1758.88 555.793ZM1758.88 555.793L1741.28 596.105L1709.9 576.92L1758.88 555.793ZM1758.88 555.793L1272.1 388.197M1678.66 648.012L1724.3 620.376M1678.66 648.012L1708.18 610.183L1724.3 620.376M1678.66 648.012L1693.96 693.711L1658.9 671.082L1678.66 648.012ZM1724.3 620.376L1750.09 652.918M1724.3 620.376L1693.94 693.711M1724.3 620.376L1678.64 648.012L1693.94 693.711M1724.3 620.376L1693.96 693.731L1728 722.007L1724.3 620.376ZM1653.77 698.477L1633.3 689.325L1658.9 671.062L1653.77 698.477ZM1653.77 698.477L1670.65 750.043L1619.58 747.58M1653.77 698.477L1619.58 747.58M1653.77 698.477L1728.04 721.967L1694 693.691L1653.77 698.477ZM1836.46 561.501L1852.18 530.12M1836.46 561.501L1812.83 544.599L1852.18 530.12M1836.46 561.501L1830.46 516.683L1852.18 530.12M1636.73 835.413L1649.9 877.247L1672.67 841.982L1636.73 835.413ZM1636.73 835.413L1586.86 867.855M1636.73 835.413L1554.04 830.948L1586.86 867.855M1617.96 788.593L1629.02 810.101L1601.94 818.812L1617.96 788.593ZM1617.96 788.593L1596.86 748.842M1617.96 788.593L1619.5 747.62L1596.86 748.842M1617.96 788.593L1619.58 747.58M1617.96 788.593L1670.57 750.083L1619.58 747.58M1596.86 748.842L1554.14 830.948L1601.94 818.692L1596.86 748.842ZM1443.58 931.617L1491.06 941.51M1443.58 931.617L1516.37 887.981M1443.58 931.617L1513.43 854.218M1491.06 941.51L1516.37 887.981M1491.06 941.51L1513.43 854.218M1516.37 887.981L1513.43 854.218M1516.37 887.981L1554.14 831.028L1513.43 854.218M1332.45 1017.09L1251.35 1032.13M1332.45 1017.09L1269.37 1071.72L1251.35 1032.13M1332.45 1017.09L1355 1069.92L1251.35 1032.13M1251.35 1032.13L1199.42 1019.59M1251.35 1032.13L1221.93 1011.9L1199.42 1019.59M1394.41 1038.92L1424.57 1074.42M1394.41 1038.92L1455.21 1043.04M1394.41 1038.92L1401.94 1007.46L1424.57 1074.42M1394.41 1038.92L1359.95 1039.68L1359.27 1053.41L1394.41 1038.92ZM1424.57 1074.42L1455.21 1043.04M1455.21 1043.04L1463.4 998.984L1401.94 1007.39L1455.21 1043.04ZM1604.79 921.564L1598.9 873.502L1571.12 928.073L1604.79 921.564ZM1604.79 921.564L1586.86 867.855M1604.79 921.564L1540.12 898.515L1586.86 867.855M1722.06 760.657L1706.04 763.24L1720.49 783.406L1722.06 760.657ZM1722.06 760.657L1776.03 732.621L1727.96 721.967L1722.06 760.657ZM1583.02 954.106L1606.31 963.478L1591.35 983.845L1583.02 954.106ZM1583.02 954.106L1571.14 929.334L1566.72 967.383L1583.02 954.106ZM1858.31 645.489L1864.14 665.675L1837.45 659.046L1858.31 645.489ZM1858.31 645.489L1864.64 630.269M1858.31 645.489L1902.21 637.358M1858.31 645.489L1845.22 642.765L1864.64 630.269M1864.64 630.269L1902.21 637.358M1902.21 637.358L1888.19 667.397L1858.31 645.549L1902.21 637.358ZM1785.96 743.896L1811.79 715.219L1814.48 743.755M1785.96 743.896L1814.48 743.755M1785.96 743.896L1775.99 732.641L1814.48 743.755M1822.97 680.554L1762.15 672.864L1837.49 659.046L1822.97 680.554ZM1822.97 680.554L1779.53 633.794L1822.97 643.466V680.554ZM1693.94 693.711L1658.88 671.082L1750.07 652.918L1693.94 693.711ZM1668.77 591.82L1709.84 576.92M1668.77 591.82L1682.63 564.304L1709.84 576.92M1668.77 591.82L1707.42 609.583L1671.41 623.861L1668.77 591.82ZM1668.77 591.82L1664.5 561.22M1709.84 576.92L1664.5 561.22M1664.5 561.22L1652.89 550.486L1648.88 562.602L1664.5 561.22ZM1614.9 532.263L1585.32 537.77L1588.18 556.975M1614.9 532.263L1588.18 556.975M1614.9 532.263L1595.71 533.585L1588.18 556.975M1513.11 610.043L1492.86 615.69L1502.55 595.004L1513.11 610.043ZM1513.11 610.043L1532.03 629.508L1531.83 588.976L1513.11 610.043ZM1356.05 484.802L1365.68 486.204L1339.3 499.661M1356.05 484.802L1339.3 499.661M1356.05 484.802L1345.83 506.39L1339.3 499.661M1492.78 671.342L1480.13 695.914M1492.78 671.342L1531.95 692.329L1480.13 695.914M1492.78 671.342L1496.85 732.561L1480.13 695.914M1568.38 723.69L1563.99 755.591L1516.31 754.529M1568.38 723.69L1516.31 754.529M1568.38 723.69L1596.72 748.842L1516.31 754.529M1514.57 1293.48L1522.24 1304.46L1523.42 1290.82L1514.57 1293.48ZM1514.57 1293.48L1495.26 1325.1L1479.24 1288.54L1514.57 1293.48ZM1514.57 1293.48L1648.44 1350.74M1547.37 1323.86L1538.9 1319.28L1556.1 1308.76L1547.37 1323.86ZM1547.37 1323.86L1566.54 1359.91L1586.66 1335.48L1547.37 1323.86ZM1413.64 1232.38L1433.67 1211.28M1413.64 1232.38L1419.65 1209.56L1433.67 1211.28M1413.64 1232.38L1392.93 1214.02L1433.67 1211.28M1516.85 1204.61L1554.2 1218.07L1533.39 1197.68L1516.85 1204.61ZM1516.85 1204.61L1496.37 1223.93L1497.39 1193.25L1516.85 1204.61ZM1423.11 1449.44L1458.34 1463.18M1423.11 1449.44L1476.92 1411.38L1458.34 1463.18M1423.11 1449.44L1434.31 1498.63M1423.11 1449.44L1412.2 1468.93L1434.31 1498.63M1458.34 1463.18L1412.28 1468.93L1434.31 1498.63M1458.34 1463.18L1434.31 1498.63M997.023 1181.1L996.482 1212.74L970.809 1201.79M997.023 1181.1L970.809 1201.79M997.023 1181.1L1022.76 1207.13M970.809 1201.79L1022.76 1207.13M1022.76 1207.13L1112.35 1206.03L1074.62 1181.1M1022.76 1207.13L1074.62 1181.1M1022.76 1207.13L953.847 622.239M1022.76 1207.13L1349.18 727.034M1074.62 1181.1L1112.35 1206.01L1083.71 1230.42L1074.62 1181.1ZM1085.82 1027.82L1043.34 1096.99M1085.82 1027.82L1118.96 1059.84L1043.34 1096.99M1085.82 1027.82L1118.96 1059.86M1085.82 1027.82L1098.39 1088.04L1118.96 1059.86M1043.34 1096.99L1085.82 1027.74L1132.28 1018.19M1043.34 1096.99L1132.28 1018.19M1118.96 1059.86L1199.42 1019.81L1132.28 1018.41L1118.96 1059.86ZM1243.86 1192.75L1251.87 1165.7L1260.72 1193.07M1243.86 1192.75L1260.72 1193.07M1243.86 1192.75L1304.78 1173.05L1260.72 1193.07M1205.25 1092.28L1207.57 1118.82L1195.9 1113.71L1205.25 1092.28ZM1205.25 1092.28L1199.48 1019.55L1251.41 1032.09L1205.25 1092.28ZM1505.4 1091.66L1451.95 1078.57M1505.4 1091.66L1455.23 1043.12L1451.95 1078.57M1451.95 1078.57L1424.59 1074.56L1462.64 1102.9L1451.95 1078.57ZM1663.54 464.035L1682.89 465.617L1666.91 494.074M1663.54 464.035L1666.91 494.074M1663.54 464.035L1709.08 486.544L1666.91 494.074M1876.36 395.727L1898.38 419.878L1907.07 402.376L1876.36 395.727ZM1876.36 395.727L1885.51 438.002M1876.36 395.727L1898.44 419.878M1885.51 438.002L1898.44 419.878M1885.51 438.002L1865.46 428.389L1898.44 419.878M2026.83 809.921L2024.65 796.603L2046.37 806.476M2026.83 809.921L2046.37 806.476M1404.83 955.708L1463.4 999.124L1401.94 1007.54L1404.83 955.708ZM1101.28 1257.44L1132.2 1264.71L1141.09 1236.23M1101.28 1257.44L1141.09 1236.23M1101.28 1257.44L1148.2 1260.8L1141.09 1236.23M1199.42 1019.59L1205.13 1091.68L1132.28 1018.19M1199.42 1019.59L1132.28 1018.19M1945.42 605.477L1978.59 633.874M1945.42 605.477L1951.43 631.511L1978.59 633.874M1978.59 633.874L1988.1 676.729L1966.73 661.91L1978.59 633.874ZM953.847 622.239L1722.34 1061.42L1907.88 702.622M953.847 622.239L1227.88 538.11M953.847 622.239L850.013 929.034M953.847 622.239L818.373 345.242M953.847 622.239L1349.32 726.954M1848.3 581.086L1227.88 538.11M1227.88 538.11L1272.1 388.197M1227.88 538.11L818.373 345.242M1907.9 702.702L850.013 929.034M850.013 929.034L689.146 419.878M850.013 929.034L417.797 832.249M850.013 929.034L1299.41 1128.75M689.146 419.878L1272.1 388.197M689.146 419.878L101.209 58.5528M689.146 419.878L818.373 345.242M689.146 419.878L201.338 681.755L417.797 832.249M1272.1 388.197L818.373 345.242M1272.1 388.197L1349.26 726.954M1272.1 388.197L1018.89 2.02003M1272.26 388.197L1601.4 700.78L1722.08 1061.48M1024.26 1206.73L1874.87 1109.73M818.373 345.242L104.593 61.9572M818.373 345.242L1018.77 2M1349.26 726.954L1851.32 750.083M1349.26 726.954L1299.41 1128.75M1349.26 726.954L1940.94 918.761L1227.88 538.271M1349.26 726.954L1513.83 854.198L1299.41 1128.75M689.106 419.878L417.797 832.249M417.797 832.249L954.488 621.978M417.797 832.249L448.476 960.074M850.294 928.193L1023.4 1206.93M850.814 929.034L448.476 960.074M448.476 960.074L1 1082.71M1299.41 1128.77L1648.5 1350.74M1678.38 1048.41L1690.78 1035.55L1659.44 1027.54L1678.38 1048.41ZM1773.64 1113.31L1780.43 1080.55L1753.16 1100.88L1773.64 1113.31ZM1752.76 1172.15L1759 1186.35L1773.52 1138.28L1752.76 1172.15ZM1722.4 1061.42L1740.06 1068.81L1754.08 1053.85L1722.4 1061.42ZM1697.22 1136.04L1709.34 1117L1677.74 1127.95L1697.22 1136.04ZM1723 1142.05L1709.34 1116.92L1708.2 1162.31L1723 1142.05ZM1595.49 1008.2L1567.26 1017.87L1608.87 1032.31L1595.49 1008.2ZM1557.68 926.771L1540.14 898.735L1529.11 925.529L1557.68 926.771ZM1883.42 1082.11L1905.79 1098.73L1914.74 1086.42L1883.42 1082.11ZM1896.4 1166.92L1905.61 1183.6L1921.63 1150.2L1896.4 1166.92ZM1873.99 1150.86L1905.83 1098.67L1874.91 1109.73L1873.99 1150.86ZM1633.26 689.225L1596.74 748.742L1619.46 747.48L1633.26 689.225ZM1854.77 931.457L1890.31 964.239L1880 933.42L1854.77 931.457ZM1819.48 920.243L1846.16 892.207L1831.16 898.014L1819.48 920.243ZM1788.92 971.128L1819.22 988.851L1845.7 962.477L1788.92 971.128ZM1854.81 931.457L1830.98 897.954L1819.3 920.243L1854.81 931.457ZM1819.42 920.183L1845.74 962.457L1854.81 931.397L1819.42 920.183ZM1949.37 706.748L1933.35 722.228L1957.86 725.492L1949.37 706.748ZM2062.07 733.322L2065.54 714.438L2042.03 712.795L2062.07 733.322ZM2051.58 742.754L2065.6 714.438L2042.09 712.795L2051.58 742.754ZM2051.62 742.754L2062.56 769.969L2062.11 733.322L2051.62 742.754ZM1956.5 691.088L1949.39 706.808L1976.96 691.648L1956.5 691.088ZM1916.41 726.914L1909.2 717.301L1899.59 725.312L1916.41 726.914ZM2046.27 827.844L2021.8 829.245L2043.41 874.263L2046.27 827.844ZM1988.06 676.669L1992.59 657.845L1966.69 661.85L1988.06 676.669ZM2045.31 493.533L2024.11 530.601L2046.53 545.5L2045.31 493.533ZM2046.53 545.48L2022.74 546.341L2048.02 560.359L2046.53 545.48ZM2032.34 466.999L2027.39 486.204L2045.41 493.513L2032.34 466.999ZM2024.11 530.581L2020.1 500.142L2006.6 511.416L2024.11 530.581ZM2029.85 615.53L2031.03 641.103L2053.06 647.892L2029.85 615.53ZM2006.48 511.416L1989.98 562.021L2024.03 530.581L2006.48 511.416ZM2062.11 733.342L2042.09 712.816L2033.62 725.572L2062.11 733.342ZM1988.1 676.749L1994.11 693.431L2023.12 677.31L1988.1 676.749ZM1968.07 880.111L1912 844.986L1936.97 889.042L1968.07 880.111ZM1904.29 544.679L1923.56 556.074L1916.91 534.045L1904.29 544.679ZM1916.91 533.945L1942.94 547.402L1951.39 521.049L1916.91 533.945ZM1942.88 547.463L1978.15 527.437L1951.33 521.028L1942.88 547.463ZM1932.71 503.105L1951.33 521.129L1945.32 503.626L1932.71 503.105ZM1837.79 484.201L1848.86 496.897L1861.12 482.479L1837.79 484.201ZM1824.91 560.66L1848.3 581.126L1836.4 561.461L1824.91 560.66ZM1812.77 544.559L1797.65 535.247L1781.29 542.576L1812.77 544.559ZM1824.97 560.619L1816.56 593.402L1836.46 561.36L1824.97 560.619ZM1775.45 576.64L1816.56 593.482L1824.97 560.7L1775.45 576.64ZM1885.81 547.503L1904.27 544.759L1897.36 532.523L1885.81 547.503ZM1401.96 1007.54L1443.5 931.617L1404.85 955.648L1401.96 1007.54ZM1651.39 945.856L1688.79 942.451L1674.24 921.084L1651.39 945.856ZM1672.57 841.902L1636.53 835.333L1683.75 867.094L1672.57 841.902ZM1670.55 749.963L1728.02 721.927L1693.98 693.651L1670.55 749.963ZM1741.24 596.025L1708.16 610.043L1724.28 620.236L1741.24 596.025ZM1750.07 652.838L1762.09 672.864L1779.47 633.794L1750.07 652.838ZM1822.83 643.386L1837.43 658.966L1845.2 642.685L1822.83 643.386ZM1875.95 616.992L1851.3 610.123L1864.62 630.149L1875.95 616.992ZM1782.79 793.84L1806.18 806.797L1813.93 777.779L1782.79 793.84ZM1718.83 508.572L1734.25 515.782L1727.96 505.769L1718.83 508.572ZM1601.2 481.037L1622.05 469.482L1602.02 469.702L1601.2 481.037ZM1636.17 514.861L1653.33 521.369L1656.25 514.22L1636.17 514.861ZM1393.45 589.757L1426.46 584.33L1434.71 563.363L1393.45 589.757ZM1626.71 612.486L1628.34 630.73L1648.88 613.988L1626.71 612.486ZM1558.63 674.446L1583.46 675.808L1570.64 659.907L1558.63 674.446ZM1678.62 648.012L1648.84 613.968L1643.22 642.004L1678.62 648.012ZM1262.6 479.395L1286.64 494.414L1286.12 462.653L1262.6 479.395ZM1163.24 507.431L1140.69 495.416L1130.92 503.426L1163.24 507.431ZM1312.75 641.784L1295.03 648.413L1303.98 665.294L1312.75 641.784ZM1464.5 650.655L1491.92 650.395L1464.89 629.188L1464.5 650.655ZM1601.42 700.78L1619.44 747.58L1633.24 689.325L1601.42 700.78ZM1505.9 1264.49L1523.48 1290.16L1528.59 1262.76L1505.9 1264.49ZM1464.65 1340.44L1479 1362.47L1495.24 1325.26L1464.65 1340.44ZM1304.82 1173.09L1337.54 1181.1L1330.33 1170.28L1304.82 1173.09ZM1445.78 1266.17L1456.53 1258.28L1450.49 1246.8L1445.78 1266.17ZM1430.62 1186.29L1404.43 1189.11L1419.55 1209.66L1430.62 1186.29ZM1575.21 1241.18L1562.31 1242.88L1570 1260.02L1575.21 1241.18ZM1157.97 1082.15L1162.12 1130.83L1205.13 1092.32L1157.97 1082.15ZM2189.94 1627.67L2198.33 1662.06L2206 1640.93L2189.94 1627.67ZM1391.59 1567L1418.81 1552.08L1411.06 1527.68L1391.59 1567ZM1401.78 1318.68L1439.83 1386.66L1464.71 1340.36L1401.78 1318.68ZM1212.54 1533.15L1219.93 1484.33L1191.55 1511.68L1212.54 1533.15ZM939.268 1242.78L962.859 1252.33L956.631 1217.43L939.268 1242.78ZM928.835 1369.66L938.187 1369.94L940.19 1331.67L928.835 1369.66ZM1132.28 1018.27L1157.97 1082.23L1199.42 1019.67L1132.28 1018.27ZM1451.95 1078.69L1462.6 1102.96L1505.4 1091.78L1451.95 1078.69ZM1489.46 1032.63L1455.23 1043.16L1451.95 1078.61L1489.46 1032.63ZM1277.3 1139.75L1242.92 1119.34L1238.21 1139.55L1277.3 1139.75ZM1772.66 463.114L1767.98 461.752L1768.48 474.949L1772.66 463.114ZM1782.11 441.406L1782.63 456.806L1798.27 446.412L1782.11 441.406ZM1814.96 414.692L1812.71 430.131L1830.46 435.839L1814.96 414.692ZM1996.55 725.812L1949.39 706.848L1957.78 725.592L1996.55 725.812ZM1888.19 667.437L1864.16 665.775L1892.86 689.566L1888.19 667.437ZM1806.24 806.797L1803.72 835.974L1825.45 843.984L1806.24 806.797ZM1710.68 920.463L1736.42 895.751L1700.63 880.712L1710.68 920.463ZM1595.57 1008.4L1608.95 1032.43L1637.31 990.854L1595.57 1008.4ZM1443.48 931.677L1463.4 999.184L1496.91 968.204L1443.48 931.677ZM1678.28 1048.39L1695.84 1063.17L1699.73 1042.78L1678.28 1048.39ZM1078.47 1453.69L1078.75 1467.99L1094.89 1446.56L1078.47 1453.69ZM1360.89 1087.88L1354.88 1069.86L1339.14 1078.75L1360.89 1087.88ZM1813.99 777.879L1782.85 793.9L1820.54 794.801L1813.99 777.879ZM1938.46 685.761L1902.21 637.498L1911.84 679.553L1938.46 685.761ZM1892.84 689.606L1911.84 679.473L1888.19 667.457L1892.84 689.606ZM1900.63 582.007L1904.29 544.739L1881.24 560.88L1900.63 582.007Z" stroke="#00B9FF" stroke-width="5" stroke-miterlimit="10"/>
</svg>
