         <svg width="446" height="70" viewBox="0 0 446 70" fill="none" xmlns="http://www.w3.org/2000/svg">
                <path d="M37.9029 21.0586H60.3702C60.6392 21.0427 60.9057 21.1182 61.1261 21.2726C61.3465 21.4271 61.5077 21.6514 61.5835 21.909C59.6213 29.2342 58.5279 33.0683 58.3033 33.4114L57.4495 33.6129H31.2076C24.4674 33.6129 20.5806 34.1723 19.5022 35.2912C17.54 37.3053 15.6452 42.4001 13.8178 50.5756C13.7055 52.3211 13.6381 53.3058 13.6381 53.5072C13.6381 55.4541 14.739 56.4163 16.9184 56.4163C16.9184 56.7744 19.6819 56.9758 25.1864 57.0653H51.3384C51.4956 57.0653 51.6754 57.2667 51.8327 57.6919C51.0484 61.76 49.9056 65.7514 48.4176 69.6196L47.5414 69.821H20.3109C9.82618 69.821 3.6327 68.5678 1.73046 66.0614C0.582121 64.2469 -0.0184259 62.1418 0.000430796 59.9969C0.000430796 54.9841 2.17977 46.0328 6.53844 33.1429C7.33614 30.8609 8.58387 28.7608 10.2082 26.9661C11.8326 25.1714 13.8008 23.7183 15.9972 22.6922C17.9893 21.6031 25.2912 21.0586 37.9029 21.0586ZM108.361 36.1192C106.953 26.228 106.039 21.2824 105.62 21.2824H87.1963C85.9615 22.7101 84.8065 24.2042 83.7363 25.7581C70.9 43.8845 64.4818 53.0522 64.4818 53.261C60.4055 58.4899 56.6179 63.9359 53.1357 69.5748C53.1357 69.8657 53.2481 70 53.4728 70H66.5488C68.4142 67.919 70.0838 65.6717 71.5365 63.2865L73.0868 61.541H98.3625C98.3625 62.2347 98.4749 62.5704 98.722 62.5704C99.2612 67.3146 99.778 69.6867 100.272 69.6867H112.832L113.708 69.0601C111.356 54.0219 109.574 43.0416 108.361 36.1192ZM82.0288 48.0692C86.6571 41.0201 90.162 36.0073 92.5435 32.9863H94.251C95.8238 41.9376 96.4978 47.465 96.6551 49.4119V49.6134V50.5085H95.644H80.7257C80.7711 50.0365 80.9095 49.5781 81.1331 49.1595C81.3567 48.7409 81.6611 48.3704 82.0288 48.0692ZM132.827 20.7229H165.697C171.089 20.7229 174.37 22.1104 175.493 24.9077C175.765 25.7208 175.946 26.5613 176.032 27.4141V29.2938C176.032 33.0385 174.534 39.103 171.539 47.4874C170.811 49.3721 169.704 51.0887 168.286 52.5318C166.868 53.9749 165.169 55.114 163.293 55.8793C160.227 56.83 157.021 57.2538 153.812 57.1325H134.557C134.041 57.1325 133.007 60.4668 131.457 67.1579C131.187 68.2769 130.671 68.8363 129.907 68.8363H119.167L118.988 68.0083C119.332 66.5164 121.347 58.9824 125.031 45.4062C125.176 45.2258 125.356 45.0771 125.561 44.9693C125.766 44.8615 125.991 44.7969 126.222 44.7796H153.071C157.879 44.7796 160.305 44.0859 160.305 42.6761C161.552 40.6477 162.263 38.3382 162.372 35.9626V35.3136C162.372 33.7919 160.709 33.0758 157.362 33.0758H129.053C128.806 33.0758 128.693 32.9415 128.693 32.673V32.2478C130.423 24.8629 131.457 21.0586 131.794 21.0586C132.097 20.8457 132.457 20.7287 132.827 20.7229ZM219.237 21.1705C225.992 21.7971 229.37 22.9832 229.37 24.7287C229.931 25.0867 230.291 26.5637 230.426 29.2043C229.973 34.7047 228.574 40.0866 226.292 45.1153C225.697 46.4255 224.84 47.6013 223.774 48.5709C222.708 49.5404 221.455 50.2835 220.091 50.7546V50.9784C221.18 51.5505 222.074 52.4328 222.659 53.5129C223.243 54.593 223.491 55.8219 223.371 57.043C223.895 59.4449 224.464 63.555 225.079 69.3734L224.584 69.7986H211.733C211.149 69.7986 210.587 66.9342 210.093 61.1829C210.098 60.1994 209.93 59.2225 209.598 58.2961C208.946 57.9825 208.249 57.7711 207.531 57.6695H187.311C186.457 57.6695 185.895 58.7213 185.581 60.8249C184.098 66.5985 183.177 69.5077 182.84 69.5972L181.986 69.7986H171.629C171.471 69.7986 171.314 69.5972 171.134 69.172V68.9706C171.134 68.6125 175.261 52.9925 183.514 22.1104L184.21 21.4614H215.103C216.249 21.3048 217.619 21.2376 219.237 21.1034V21.1705ZM190.029 44.8244L190.524 45.2496H199.645C209.411 45.2496 214.294 44.6155 214.294 43.3474C215.515 41.2946 216.281 39.0057 216.541 36.6339V35.8059C216.541 34.4185 215.125 33.7024 212.25 33.7024H194.006C192.958 33.7024 192.149 35.4479 191.58 38.9389C190.918 40.8407 190.385 42.7845 189.984 44.7572L190.029 44.8244ZM243.502 20.3425H254.735C254.938 20.3425 255.095 20.611 255.275 21.1705L242.715 68.165C242.403 68.5127 241.969 68.7288 241.502 68.7692H230.268C229.976 68.7692 229.819 68.5007 229.774 67.9412C236.649 42.0271 240.828 26.407 242.311 21.081C242.437 20.8762 242.604 20.6992 242.801 20.5607C242.998 20.4222 243.221 20.3251 243.457 20.2754L243.502 20.3425ZM274.349 20.5439H308.41C309.964 20.3834 311.521 20.8128 312.77 21.7462C314.02 22.6797 314.87 24.0485 315.15 25.579C315.356 26.3994 315.469 27.2401 315.487 28.0854C315.487 32.5611 313.136 42.2583 308.432 57.1772C306.478 61.9886 304.321 65.1215 301.894 66.5985C300.157 68.5529 292.81 69.53 279.854 69.53H278.686C265.64 69.53 258.293 68.7841 256.645 67.2922C255.083 65.4111 254.282 63.0171 254.398 60.5787C254.398 57.1175 256.57 48.0543 260.914 33.3891C264.044 24.7809 268.508 20.4768 274.304 20.4768L274.349 20.5439ZM268.485 52.5673C268.485 55.0737 270.373 56.3045 274.17 56.3045C275.998 56.49 277.836 56.5647 279.674 56.5282H284.325C291.35 56.5282 295.311 55.7823 296.21 54.2904C297.72 51.835 298.82 49.1521 299.468 46.3461C300.538 43.0251 301.173 39.5801 301.355 36.0968C301.426 35.3693 301.21 34.643 300.753 34.0711C300.296 33.4992 299.634 33.1263 298.906 33.031C297.03 32.7033 295.126 32.5609 293.222 32.6058H285.426C278.641 32.6058 274.791 33.3518 273.878 34.8437C272.29 37.0516 270.575 42.4225 268.733 50.9561C268.583 51.4596 268.485 51.9769 268.44 52.5001L268.485 52.5673ZM329.147 20.3425H340.381C340.538 20.3425 340.718 20.5439 340.898 20.9691C341.078 21.3943 337.842 32.9639 331.776 55.2751C331.873 55.4714 331.934 55.6837 331.956 55.9017H358.917C359.074 55.9017 359.231 56.1702 359.411 56.7296C357.479 64.025 356.378 67.9188 356.153 68.2545C355.858 68.4914 355.497 68.632 355.12 68.6573H315.757C315.532 68.6573 315.42 68.4559 315.42 68.0531C315.42 67.6503 319.554 51.9855 327.822 21.0586C327.951 20.8492 328.124 20.6706 328.33 20.5353C328.536 20.3999 328.769 20.3112 329.013 20.2754L329.147 20.3425ZM369.072 43.6383C368.323 43.6383 366.735 47.9573 364.309 56.5954C364.309 57.0877 364.488 57.3339 364.826 57.3339H426.701C427.052 57.3318 427.399 57.2474 427.712 57.0877C428.161 56.9087 429.666 52.612 432.205 44.3544C432.12 44.0343 431.92 43.7568 431.642 43.575C431.364 43.3933 431.028 43.3202 430.7 43.3698H370.038C369.659 43.3245 369.275 43.3947 368.937 43.5712L369.072 43.6383ZM376.127 21.909C375.153 21.909 373.655 25.9072 371.633 33.9038C371.903 34.3961 372.172 34.6423 372.397 34.6423H433.239C433.591 34.6455 433.939 34.5609 434.25 34.3961C434.999 34.3961 436.414 30.4874 438.496 22.6699V22.4013C438.496 22.1328 438.316 21.9761 438.002 21.909H376.127ZM378.373 12.9577C378.373 13.629 378.71 13.9647 379.137 13.9647H440.204C440.868 13.9341 441.499 13.6636 441.978 13.2038C443.59 9.06437 444.933 4.82616 446 0.515323C446 0.202027 445.82 0.0453708 445.483 0.000614156H383.002C382.238 -0.0590614 380.65 4.23012 378.239 12.8681L378.373 12.9577Z" fill="url(#paint0_linear_29_884)"/>
                <defs>
                <linearGradient id="paint0_linear_29_884" x1="0.0453655" y1="35.0003" x2="445.865" y2="35.0003" gradientUnits="userSpaceOnUse">
                <stop stop-color="#0C8DCD"/>
                <stop offset="0.45" stop-color="#3EABCB"/>
                <stop offset="0.81" stop-color="#5EBECA"/>
                <stop offset="1" stop-color="#6AC5C9"/>
                </linearGradient>
                </defs>
                </svg>